<svg xmlns="http://www.w3.org/2000/svg" viewBox="0 0 500 500"><defs><style>.cls-1{fill:none;}.cls-2{fill:#fbf1ec;}.cls-3{fill:#fdbeaf;}.cls-4{fill:#cd5877;}.cls-5{fill:#282b52;}.cls-6{fill:#6d83bc;}.cls-7{fill:#feb172;}.cls-8{fill:#fee072;}.cls-9{fill:#bfcee5;}.cls-10{fill:#ff86ab;stroke:#262425;stroke-miterlimit:10;}.cls-11{fill:#5668aa;}.cls-12{fill:#fda19b;}.cls-13{fill:#9095c9;}.cls-14{fill:#fed177;}.cls-15{fill:#353861;}.cls-16{fill:#fd7a8d;}.cls-17{fill:#fec872;}.cls-18{fill:#fff;}.cls-19{fill:#9fbfde;}.cls-20{fill:#6dacbc;}.cls-21{fill:#549398;}</style></defs><g id="BACKGROUND"><rect class="cls-1" width="500" height="500"/></g><g id="OBJECTS"><path class="cls-2" d="M405.12,452.83a188.92,188.92,0,0,0,34.76-109.5c0-104.8-85-189.76-189.76-189.76s-189.77,85-189.77,189.76a188.86,188.86,0,0,0,34.77,109.5Z"/><path class="cls-3" d="M94,317.48s-19-17-24.51-25.68S61.64,276,61.71,273.69a3.11,3.11,0,0,1,1.91-2.93s.08-4.31,1.77-5.69c0,0-1.77-2.57,2.66-5s17.86,9.22,18.77,9.47,3.9,8.37,4.08,10.21,1.24,12.88,2.1,15,6.06,13,6.31,12.56Z"/><path class="cls-4" d="M61.24,228.11c-10.49,4.44-18.89,14.71-20.55,26.09-1.83,12.55,3.21,28.31,16.14,32.8s28.85.18,36.72-11.24c5.62-8.14,6-20.15,3.71-29.49A26.4,26.4,0,0,0,61.24,228.11Z"/><path class="cls-2" d="M62.86,233.86c-8.43,3.57-15.18,11.81-16.52,21-1.47,10.08,2.58,22.75,13,26.36s23.19.15,29.51-9c4.51-6.55,4.85-16.19,3-23.7A21.21,21.21,0,0,0,62.86,233.86Z"/><path class="cls-3" d="M134.22,242.7s-6-24.82-5.65-35.06,2.52-17.46,3.87-19.31a3.13,3.13,0,0,1,3.24-1.33s2.5-3.51,4.67-3.68c0,0,0-3.12,5-2.59s9.5,17.71,10.11,18.43-1.53,9.11-2.42,10.72-6.27,11.32-6.75,13.53-2.38,14.16-1.92,13.92Z"/><path class="cls-5" d="M141.7,151.54s27.06,35.77,27.29,37.38-46.78,41.5-48.38,41.5-29.13-35.77-30.27-38.06S138.49,152.23,141.7,151.54Z"/><path class="cls-2" d="M140.37,155.91s24.06,31.81,24.26,33.24-41.59,36.9-43,36.9-25.9-31.8-26.92-33.84S137.51,156.52,140.37,155.91Z"/><path class="cls-3" d="M366.87,242.7s6-24.82,5.65-35.06-2.52-17.46-3.87-19.31a3.13,3.13,0,0,0-3.24-1.33s-2.5-3.51-4.67-3.68c0,0,0-3.12-5-2.59s-9.51,17.71-10.11,18.43,1.53,9.11,2.42,10.72,6.27,11.32,6.75,13.53,2.38,14.16,1.92,13.92S366.87,242.7,366.87,242.7Z"/><rect class="cls-5" x="322.79" y="177.59" width="55.49" height="28.17" rx="4.57" transform="translate(124.74 -137.92) rotate(26.92)"/><rect class="cls-6" x="324.77" y="178.87" width="52.45" height="25.6" rx="4.57" transform="translate(124.79 -138.12) rotate(26.92)"/><path class="cls-3" d="M350.62,238.23s1.23-12,.25-18.25-7-16.55-5.93-18.75c1.61-3.33,7.32.54,12.08,8.67,4.52,7.73,6.93,22.23,4.77,31.23s-7.59,7.17-8.43,6.35S350.62,238.23,350.62,238.23Z"/><path class="cls-6" d="M271.74,296.91s42.13-16.43,54.18-23.6,19.87-37.87,21-40.62,22.68,6.67,23.73,9-2.95,34.58-11.8,46.79-44.14,31.73-44.14,31.73Z"/><path class="cls-3" d="M407.11,317.48s19-17,24.52-25.68,7.82-15.82,7.75-18.11a3.11,3.11,0,0,0-1.91-2.93s-.08-4.31-1.77-5.69c0,0,1.76-2.57-2.66-5s-17.87,9.22-18.78,9.47-3.89,8.37-4.07,10.21-1.25,12.88-2.11,15-6.05,13-6.3,12.56Z"/><ellipse class="cls-7" cx="422.59" cy="261.68" rx="14.22" ry="14.6"/><circle class="cls-8" cx="422.59" cy="262.07" r="11.24" transform="translate(-68.12 181.67) rotate(-22.5)"/><path class="cls-3" d="M396.68,301.28s7.8-9.18,10.55-14.91,3.62-17.59,5.73-18.8c3.21-1.83,5.74,4.59,5.05,14-.66,8.93-6.88,22.24-13.76,28.43s-10.32,1.6-10.55.46S396.68,301.28,396.68,301.28Z"/><path class="cls-6" d="M297.63,308.84s44,10.32,58,11.24,37.83-19.95,40.35-21.56,14.91,18.35,14.45,20.87-22,26.83-36.23,31.87-54.34,1.15-54.34,1.15Z"/><path class="cls-3" d="M151.39,236.4s-1.23-12-.25-18.26,7-16.55,5.93-18.74c-1.61-3.33-7.33.53-12.09,8.67-4.52,7.73-6.93,22.22-4.76,31.22s7.59,7.17,8.43,6.36S151.39,236.4,151.39,236.4Z"/><path class="cls-6" d="M229.35,296.91s-42.13-16.43-54.18-23.6-19.88-37.87-21-40.62-22.67,6.67-23.72,9,2.94,34.58,11.8,46.79,44.14,31.73,44.14,31.73Z"/><path class="cls-3" d="M104.41,301.28s-7.8-9.18-10.55-14.91-3.62-17.59-5.73-18.8c-3.21-1.83-5.74,4.59-5,14C83.73,290.49,90,303.8,96.84,310s10.32,1.6,10.55.46S104.41,301.28,104.41,301.28Z"/><path class="cls-6" d="M203.46,308.84s-44,10.32-58,11.24-37.83-19.95-40.36-21.56-14.9,18.35-14.44,20.87,22,26.83,36.23,31.87,54.34,1.15,54.34,1.15Z"/><circle class="cls-5" cx="249.24" cy="179.75" r="22.7" transform="translate(-49.81 109.06) rotate(-22.5)"/><path class="cls-5" d="M249.24,177c-52.05,0-52.74,47.23-46.77,72.23S176.55,302.42,214.62,324s76.57.67,82.55-9.4c8-13.53-5.74-42.2-1.61-61.46C299.85,233.13,305,177,249.24,177Z"/><path class="cls-2" d="M221.27,312.51c.23,1.38,6.42,53.43,7.79,53.2s48.62-1.83,46.78-3.21,5.73-43.57,4.59-45.86-21.33-6.65-24.77-7.57S221.27,312.51,221.27,312.51Z"/><path class="cls-3" d="M225.63,293.48a20.19,20.19,0,0,0,8.94-5.73c2.29-2.52,2.29-13.76,2.29-13.76l24.31,2.06s.46,8.26,2.52,11,5.73,4.13,9.39,6.42L274.47,316s-18.35,17.89-51.6,0c0,0-1.14-12.38-1.14-13.3S225.63,293.48,225.63,293.48Z"/><path class="cls-6" d="M225.63,293.48s-.23,37.38,11,71.31l-46.55,74.3S163,419.37,160.27,389.33s19-61.35,28.9-73.61C197,306.09,216.22,296.23,225.63,293.48Z"/><path class="cls-6" d="M273.08,293.48s.23,37.38-11,71.31l46.55,74.3s27.06-19.72,29.81-49.76-19-61.35-28.89-73.61C301.74,306.09,282.48,296.23,273.08,293.48Z"/><path class="cls-9" d="M308,443.38H192a5.41,5.41,0,0,1-5.36-4.6l-12.16-79.36a5.43,5.43,0,0,1,5.36-6.25H320.2a5.43,5.43,0,0,1,5.36,6.25L313.4,438.78A5.41,5.41,0,0,1,308,443.38Z"/><path class="cls-10" d="M225.63,293.48"/><path class="cls-6" d="M162.22,169.72c1.44-1.32,3.69-4,1.72-6.25s-4.39-.65-5.79.52c-2.08-2.73-3.88-4.76-4.3-4.42-1.53,1.22-6.87,6-7.56,7.34s9.17,15.59,11.69,14.67,7.11-4.81,7.8-5.5C166.05,175.8,164.39,173,162.22,169.72Z"/><path class="cls-11" d="M162.19,166.07a.25.25,0,0,0,0-.12,1.05,1.05,0,0,0-.15-.3,1.8,1.8,0,0,0-.63-.74l-.13,0a.87.87,0,0,0-.42-.1,1.45,1.45,0,0,0-.3.05,2.85,2.85,0,0,0-.31.12.41.41,0,0,0-.11.07,1.83,1.83,0,0,0-.31.24,2.6,2.6,0,0,0-.25.31,1.78,1.78,0,0,0-.24.5.09.09,0,0,0,0,0h0a.19.19,0,0,0,0,.07v0l0,.34v0c0,.07,0,.16,0,.2s0,.14,0,.21a.19.19,0,0,0,0,.07,2.75,2.75,0,0,0,.15.36l0,0,.1.14.11.13a1.94,1.94,0,0,0,.27.21h0l.07.05.33.14.07,0a1.86,1.86,0,0,0,.33,0,.76.76,0,0,0,.42-.09l-.11.05.24-.1,0,0h0l.07,0,0,0,0,0,.07-.05s0,0,0,0a2.2,2.2,0,0,0,.42-.44l.06-.1a2.5,2.5,0,0,0,.15-.38,1.82,1.82,0,0,0,.08-.52A2.6,2.6,0,0,0,162.19,166.07Z"/><path class="cls-5" d="M62.91,241.45a.64.64,0,0,0,0-.24,1.78,1.78,0,0,0-.09-.47,3.23,3.23,0,0,0-.33-.64,4.05,4.05,0,0,0-.43-.57,2.75,2.75,0,0,0-.59-.42.94.94,0,0,0-1.12.15.93.93,0,0,0-.15,1.11,2.29,2.29,0,0,1,.18.29,2.53,2.53,0,0,0,.34.45l-.16-.2c.13.16.23.34.35.52a2.52,2.52,0,0,0,.24.33,1.46,1.46,0,0,0,.16.19.7.7,0,0,0,.16.1.9.9,0,0,0,.4.23l.06.11a1.39,1.39,0,0,0,.21.27.22.22,0,0,0,.34,0,.8.8,0,0,0,.14-.39,1,1,0,0,0,0-.17A.92.92,0,0,0,62.91,241.45Z"/><polygon class="cls-5" points="61.85 242.19 61.84 242.19 61.83 242.19 61.84 242.19 61.85 242.19"/><path class="cls-5" d="M82,275.94a3.54,3.54,0,0,0-.08-.45,5.42,5.42,0,0,0-.22-.56,2.66,2.66,0,0,0-.28-.38l-.09-.1-.09-.1a1.39,1.39,0,0,0-.31-.23l0,0a1.64,1.64,0,0,0-.29-.16l-.28-.13a1.11,1.11,0,0,0-.48,0,.53.53,0,0,0-.3.09.88.88,0,0,0-.39.24,1.57,1.57,0,0,0-.31.53,1,1,0,0,0,0,.48,1,1,0,0,0,.14.44,1.09,1.09,0,0,1,.14.23l.13.26a2.34,2.34,0,0,0,.09.24h0a.69.69,0,0,1,0,.13l0,.13s0,.05,0,.07a1.38,1.38,0,0,0,.34.6,1,1,0,0,0,.29.23,1,1,0,0,0,.49.16,1,1,0,0,0,.51,0l.31-.13.14-.11a1.07,1.07,0,0,0,.34-.36,2,2,0,0,0,.09-.2,1.37,1.37,0,0,0,.11-.54A1.55,1.55,0,0,0,82,275.94Z"/><path class="cls-5" d="M56.46,273.17a.69.69,0,0,0-.22-.34,1.08,1.08,0,0,0-.46-.27,1.09,1.09,0,0,0-.81.1,2.47,2.47,0,0,0-1,.88,2.11,2.11,0,0,0-.18.33,3.87,3.87,0,0,0-.23.65l-.05.31a.88.88,0,0,0,.11.45.5.5,0,0,0,.15.26.8.8,0,0,0,.33.3,1.33,1.33,0,0,0,.59.16,1.24,1.24,0,0,0,.83-.34l.17-.17a1.25,1.25,0,0,0,.36-.87l0-.05a4.57,4.57,0,0,1,.29-.47l.1-.25a.75.75,0,0,0,0-.42A.48.48,0,0,0,56.46,273.17Z"/><path class="cls-5" d="M87.72,245a.89.89,0,0,0-.33-.48.94.94,0,0,0-.44-.18,1,1,0,0,0-.53.08,1.26,1.26,0,0,0-.37.13l-.23.18-.14.11.23-.17c-.19.14-.37.3-.56.45l.23-.17a2.21,2.21,0,0,0-.59.59.71.71,0,0,0-.07.09,1.34,1.34,0,0,0-.16.55,1,1,0,0,0,.13.48,1.1,1.1,0,0,0,.34.34,1.19,1.19,0,0,0,.56.14l.11,0h0l.29,0,.15-.06c.08,0,.17-.07.25-.12a3.72,3.72,0,0,0,.45-.33,2.08,2.08,0,0,0,.21-.21l.09-.1a.89.89,0,0,0,.23-.35,1.74,1.74,0,0,0,0-.22h0l.06-.21A1.06,1.06,0,0,0,87.72,245Z"/><path class="cls-5" d="M79.32,244.55A7.57,7.57,0,0,0,78,242.31a3,3,0,0,0-2.28-1.59,6.14,6.14,0,0,0-2.57.87,5.26,5.26,0,0,0-2.1,1.39l-.08.08a.69.69,0,0,0,.49,1.16l.26,0,.36-.06a5.72,5.72,0,0,0,.57-.11,8.18,8.18,0,0,0,1.2-.44l.41-.18c-.77,2.38-1.59,4.75-2.48,7.08-.51,1.35-1,2.7-1.52,4-.24.61-.58,1.28-.86,2l-.21.1a1.45,1.45,0,0,0-.5.38l-.06.09a1.1,1.1,0,0,0-.3.27.64.64,0,0,0-.17.3,1.08,1.08,0,0,0-.12.5c-1.21.09-2.43.21-3.63.38-.81.12-1.61.25-2.4.43-.28.06-.59.14-.89.23l.12-.2c.23-.33.48-.65.69-1a1,1,0,0,0-.24-1.23,1,1,0,0,0-1.26.07,8,8,0,0,0-1,1.23,6.21,6.21,0,0,0-.67,1.21,3,3,0,0,0,.17,2.57,4.44,4.44,0,0,0,1.62,1.57c.74.45,1.74,1,2.59.53a.87.87,0,0,0,.3-1.17,1.8,1.8,0,0,0-.88-.75L62.3,262h0l-.12-.06-.41-.2-.38-.23c-.06,0-.11-.08-.16-.11h0s0,0,0,0c.46,0,.93-.11,1.33-.16l2.22-.27c1.52-.16,3-.25,4.58-.26a1.74,1.74,0,0,0,.45.06l.47-.07a2.52,2.52,0,0,0,.54-.21,1.8,1.8,0,0,0,.45-.33l-.24.19a3.57,3.57,0,0,0,.38-.3,2.79,2.79,0,0,0,.3-.38,1.46,1.46,0,0,0,.26-.63,2.07,2.07,0,0,0-.17-1.39,1.18,1.18,0,0,0-.11-.19.76.76,0,0,1-.08-.11c.27-.62.51-1.27.75-1.81.6-1.36,1.19-2.73,1.73-4.11.92-2.34,1.74-4.72,2.51-7.11a7.35,7.35,0,0,0,1,1.38A1.1,1.1,0,0,0,79.32,244.55Z"/><path class="cls-6" d="M149.88,187.25a18.38,18.38,0,0,0-2.62-4.17q-1.47-2.13-3-4.25c-1-1.37-1.91-2.75-2.91-4.09a15.87,15.87,0,0,0-3.08-3.68c-.31-.22-.7.14-.61.46a17.08,17.08,0,0,0,2.39,4.16c.91,1.4,1.85,2.78,2.78,4.17s1.83,2.79,2.75,4.19c.45.7.9,1.41,1.36,2.1.28.43.55.88.86,1.29a.43.43,0,0,0,.31.47h.1l.18.18V188C149,188.58,150.19,188.18,149.88,187.25Z"/><path class="cls-6" d="M148,194.67c-1-2.28-2.92-4.4-4.44-6.33-1.65-2.1-3.38-4.14-5.09-6.19s-3.4-4.11-5-6.25q-1.19-1.6-2.28-3.27a8.82,8.82,0,0,0-2.11-2.75.18.18,0,0,0-.27.15,6.28,6.28,0,0,0,1.15,3.08c.61,1.1,1.27,2.17,2,3.21,1.43,2.17,3,4.24,4.59,6.29s3.31,4.17,4.91,6.3q1.14,1.5,2.22,3.06a21.43,21.43,0,0,1,2.32,3.55A1.1,1.1,0,1,0,148,194.67Z"/><path class="cls-6" d="M141,199.26c-1-2.28-2.91-4.4-4.43-6.34-1.66-2.1-3.38-4.13-5.09-6.18s-3.4-4.11-5-6.25q-1.18-1.61-2.28-3.27a9,9,0,0,0-2.11-2.76.18.18,0,0,0-.27.16A6.4,6.4,0,0,0,123,177.7c.61,1.1,1.28,2.16,2,3.21,1.43,2.17,3,4.24,4.59,6.29s3.31,4.17,4.91,6.29c.76,1,1.5,2,2.22,3.07a20.63,20.63,0,0,1,2.32,3.55A1.1,1.1,0,1,0,141,199.26Z"/><path class="cls-6" d="M135.86,205c-.92-2.3-2.82-4.46-4.3-6.42-1.61-2.13-3.3-4.2-5-6.29s-3.32-4.17-4.86-6.35c-.77-1.08-1.5-2.19-2.21-3.32a8.81,8.81,0,0,0-2.06-2.79c-.11-.09-.26,0-.27.15a6.33,6.33,0,0,0,1.09,3.1c.58,1.11,1.22,2.19,1.89,3.25,1.39,2.2,2.91,4.3,4.46,6.38s3.23,4.24,4.79,6.4c.74,1,1.46,2.05,2.16,3.1a21.79,21.79,0,0,1,2.24,3.6A1.1,1.1,0,1,0,135.86,205Z"/><path class="cls-6" d="M128.15,210c-1-2.28-2.91-4.4-4.43-6.34-1.66-2.1-3.38-4.13-5.09-6.18s-3.4-4.11-5-6.25q-1.19-1.6-2.28-3.27a9,9,0,0,0-2.11-2.76.19.19,0,0,0-.28.16,6.52,6.52,0,0,0,1.15,3.08c.61,1.1,1.27,2.16,2,3.21,1.43,2.17,3,4.24,4.59,6.29s3.31,4.17,4.91,6.29c.76,1,1.5,2,2.22,3.07a21,21,0,0,1,2.32,3.55A1.1,1.1,0,1,0,128.15,210Z"/><path class="cls-6" d="M121.73,214.54c-1-2.28-2.91-4.4-4.44-6.33-1.65-2.1-3.37-4.14-5.08-6.19s-3.4-4.1-5-6.24c-.79-1.07-1.55-2.17-2.28-3.28a8.82,8.82,0,0,0-2.12-2.75c-.11-.08-.26,0-.27.15a6.48,6.48,0,0,0,1.15,3.08c.61,1.1,1.27,2.17,2,3.22,1.43,2.16,3,4.24,4.59,6.28s3.3,4.17,4.91,6.3q1.14,1.51,2.22,3.06a21.43,21.43,0,0,1,2.32,3.55A1.1,1.1,0,1,0,121.73,214.54Z"/><path class="cls-11" d="M197.19,308.18c-1.41-.07-2.7,1.78-3.61,2.68-.56.56-1.09,1.14-1.64,1.7a10.15,10.15,0,0,0-3.72.11c-1.21.12-2.42.29-3.62.46s-2.42.36-3.62.61a14.45,14.45,0,0,0-1.83.47c-.44.16-.94.29-1.15.73a.3.3,0,0,0,.05.37,1.68,1.68,0,0,0,1.28.29c.63,0,1.26-.11,1.88-.19,1.21-.15,2.42-.33,3.63-.48s2.44-.25,3.65-.37c.52-.05,1.08-.06,1.63-.1-.16.17-.33.33-.48.51a109.56,109.56,0,0,0-7,8.5,119.59,119.59,0,0,0-11.62,19c-.89,1.83-1.74,3.69-2.53,5.56-.4.94-.79,1.87-1.16,2.81a4.79,4.79,0,0,0-.31,2.93c0,.19.26.22.39.16a2.82,2.82,0,0,0,1.67-1.34c.44-.85.73-1.81,1.09-2.7q1.08-2.6,2.27-5.13,2.34-4.95,5.11-9.69a127.6,127.6,0,0,1,12.63-17.82q2-2.34,4-4.59,1-1.08,2-2.13c.59-.61,1.26-1.17,1.25-2.07A.33.33,0,0,0,197.19,308.18Z"/><path class="cls-11" d="M329.09,343.46a83.94,83.94,0,0,0-11.74-18.31,110.58,110.58,0,0,0-8.42-9.29l-4.31-4.28c-.14-.13-.28-.28-.42-.43l.06,0c1.86.6,3.72,1.16,5.58,1.74s3.59,1.13,5.4,1.65c.86.26,1.72.55,2.59.76a2.1,2.1,0,0,0,1.19,0,.86.86,0,0,0,.39-.23c.13-.22.18-.25.12-.1.2-.07.37-.33.22-.53s-.17-.45-.34-.65a2.09,2.09,0,0,0-1-.58c-.79-.26-1.61-.47-2.41-.7-1.8-.53-3.62-1-5.44-1.51s-3.62-1-5.44-1.49l-2.55-.67c-.25-.06-.53-.15-.81-.21a5.41,5.41,0,0,0-1.64-1,.64.64,0,0,0-.78.78c.52,1.57,2.14,2.81,3.24,4,1.24,1.33,2.49,2.64,3.69,4,2.45,2.78,4.88,5.57,7.24,8.42a94.55,94.55,0,0,1,12.22,18.18c.83,1.67,1.61,3.36,2.28,5.1.42,1.08.93,3.78,2.46,3.71C333.3,351.77,329.63,344.65,329.09,343.46Z"/><path class="cls-11" d="M157.12,243.06c-.69-2.23-4.28-.9-5.83-.5a54.57,54.57,0,0,0-7.23,2.48,59.39,59.39,0,0,0-6.57,3.19c-2.05,1.16-4.58,2.42-6.12,4.25-.49.59,0,1.83.85,1.46,2-.82,3.78-2.28,5.67-3.35a57.44,57.44,0,0,1,6.21-3,58.6,58.6,0,0,1,6.43-2.18c1.09-.31,2.18-.61,3.29-.84.91-.2,2.15.08,2.9-.5A.89.89,0,0,0,157.12,243.06Z"/><path class="cls-11" d="M111.57,305.39c-1.61,1.23-2.79,3.26-4,4.88-1.36,1.83-2.65,3.69-3.86,5.62a58.38,58.38,0,0,0-3.16,5.76c-.45,1-.87,1.93-1.25,2.92s-.61,2.07-1,3a1.07,1.07,0,0,0,1.68,1.29c.66-.52.8-1.69,1.07-2.45.38-1.06.79-2.1,1.25-3.13a54.05,54.05,0,0,1,3.2-5.95c1.15-1.88,2.39-3.71,3.65-5.51.63-.91,1.28-1.8,1.93-2.7a12.75,12.75,0,0,0,1.79-2.79A.87.87,0,0,0,111.57,305.39Z"/><path class="cls-11" d="M367.76,253a16.15,16.15,0,0,0-2.74-1.83,41.15,41.15,0,0,0-6.58-2.74c-2.6-.88-5.22-1.69-7.87-2.39-1.28-.34-2.59-.68-3.9-.91-.85-.15-2.17-.5-2.86.2a.15.15,0,0,0,0,.14c.24.83,1.2,1.11,1.93,1.41,1.17.47,2.38.83,3.56,1.24,2.53.87,5.06,1.71,7.57,2.6a43.83,43.83,0,0,1,6.26,2.58,19.1,19.1,0,0,1,2.66,1.71,5,5,0,0,0,1.39.94,3.6,3.6,0,0,0,1.31,0,.4.4,0,0,0,.38-.38A2.54,2.54,0,0,0,367.76,253Z"/><path class="cls-11" d="M402.93,323.63c-.39-1-.83-2-1.28-3a48.33,48.33,0,0,0-7.12-11.08c-1.24-1.46-2.9-3.8-5-3.95a.78.78,0,0,0-.68,1.17,15.73,15.73,0,0,0,1.88,2.2c.69.77,1.38,1.53,2,2.33a50.83,50.83,0,0,1,3.69,5.19,50.08,50.08,0,0,1,2.92,5.45c.43.95.81,1.9,1.19,2.87s.55,2.05,1.64,2.35a1,1,0,0,0,1.07-.44C404,325.82,403.28,324.54,402.93,323.63Z"/><path class="cls-12" d="M262,282.19a49.26,49.26,0,0,1-.78-6.14L236.86,274s0,11.24-2.29,13.76l-.17.17c2.66.12,5.47-.1,6.66-.15A52.64,52.64,0,0,0,256.68,285,22.71,22.71,0,0,0,262,282.19Z"/><path class="cls-3" d="M220.11,235.4s-7.93-1.11-7.93,5.88,7.3,7.3,7.3,7.3,3,33.66,30.64,33.66c25.73,0,28.9-33,28.9-33s7.31-2.07,6.83-7.31-6.67-6.51-6.67-6.51-23.66-6.88-30-27.05C249.17,208.41,239.49,230.8,220.11,235.4Z"/><path class="cls-13" d="M347.27,176.77a16,16,0,0,0-1.78-.69c-1-.39-2-.79-3-1.2l-3-1.22c-1-.42-2.12-1.15-3.26-.94a.83.83,0,0,0-.59,1c.45,1.1,1.66,1.64,2.64,2.21s1.87,1.08,2.84,1.55,2.06,1,3.12,1.39,2.59,1.31,3.65.49S348.22,177.26,347.27,176.77Z"/><path class="cls-13" d="M354.42,182a1.45,1.45,0,0,0-.41-.93l-.13-.14a2.87,2.87,0,0,0-.95-.56l.34.14c-.34-.14-.66-.31-1-.43-.11,0-.21-.09-.32-.12a1.63,1.63,0,0,0-.85,0l-.13,0a1,1,0,0,0-.72.94,1.09,1.09,0,0,0,0,.26.68.68,0,0,0,0,.21c0,.13.11.25.16.37l-.12-.29a2.6,2.6,0,0,0,1.11,1.3,2.89,2.89,0,0,0,1.47.51,1.66,1.66,0,0,0,1.15-.39l.19-.26s0,0,0,0a1.37,1.37,0,0,0,.13-.2.61.61,0,0,0,0-.3s0-.07,0-.1Z"/><path class="cls-13" d="M366.69,208.42a2.43,2.43,0,0,0-.2-.25,1.45,1.45,0,0,0-.52-.49,3.68,3.68,0,0,0-.45-.21l-.82-.31a3.69,3.69,0,0,0-.93-.21l-.31,0a1.05,1.05,0,0,0-.49.1l0,0h-.08a.86.86,0,0,0-.59,1l0,.09a2.06,2.06,0,0,0,.54.89,3.54,3.54,0,0,0,.47.38,2.18,2.18,0,0,0,.31.22,2.51,2.51,0,0,0,2.42.4l-.3.13.19,0a1.14,1.14,0,0,0,.73-.66A1.12,1.12,0,0,0,366.69,208.42Z"/><path class="cls-7" d="M424.57,260.72c-.23-.06-.47-.1-.7-.15l-.45-3.38c-.06-.51-.12-1-.19-1.56a8.52,8.52,0,0,1,1,0c.73.05,1.5.39,2.17,0a.56.56,0,0,0,.25-.62c-.45-1.17-2.23-1.35-3.32-1.39l-.46,0c-.05-.19-.09-.38-.14-.57a.79.79,0,0,0-1.54.21c0,.21,0,.42,0,.63a5.69,5.69,0,0,0-1.34.57c-1.92,1.17-3.33,3.72-2.17,5.9.75,1.39,2.31,1.78,3.88,2l.15,3.23c0,.6,0,1.25.05,1.9a17.19,17.19,0,0,0-2,.21,2.88,2.88,0,0,0-1.15.45.34.34,0,0,0-.17.13c-.86,1.12.75,2.05,1.68,2.1a15.9,15.9,0,0,0,2.28-.06c.64.79,2.19.79,2.49-.31a6,6,0,0,0,3.05-1.3,4.07,4.07,0,0,0,1.45-3.18C429.23,263.06,426.8,261.3,424.57,260.72Zm-5-1.32a1.83,1.83,0,0,1,0-1.52,3.43,3.43,0,0,1,1.68-1.76l.09,1.39.14,2.65c-.23,0-.45-.07-.68-.13A1.76,1.76,0,0,1,419.54,259.4Zm6.4,7.35a4,4,0,0,1-1.14.46c-.08-.55-.17-1.1-.24-1.64-.13-.9-.26-1.8-.38-2.71l.05,0a3.42,3.42,0,0,1,2.43,1.87A1.53,1.53,0,0,1,425.94,266.75Z"/><path class="cls-14" d="M432.6,252.09a15.46,15.46,0,0,0-1.51-1.28,12.5,12.5,0,0,0-1.49-1,6.56,6.56,0,0,0-1-.49,2,2,0,0,0-1-.24.82.82,0,0,0-.65.37.76.76,0,0,0,0,.76,2.4,2.4,0,0,0,.81.74c.22.16.46.3.69.46l.38.27.14.11h0l0,0,.67.56c.42.38.82.79,1.2,1.21l.27.32a1.37,1.37,0,0,1,.25.29l0,0c.08.12.16.23.25.34a2.8,2.8,0,0,0,.45.39,1,1,0,0,0,1.54-.89A2.85,2.85,0,0,0,432.6,252.09Z"/><path class="cls-14" d="M435.05,256.51a1.3,1.3,0,0,0-.29-.44,1.52,1.52,0,0,0-.77-.43l-.05,0a.19.19,0,0,0-.31.13v0a.39.39,0,0,0-.08.1.77.77,0,0,0-.07.16.65.65,0,0,0-.05.2c0,.14,0,.27-.05.4a1,1,0,0,0,.1.52,1.14,1.14,0,0,0,.26.5l.13.11a1,1,0,0,0,.34.19.72.72,0,0,0,.5,0,.65.65,0,0,0,.31-.23.42.42,0,0,0,.1-.17.51.51,0,0,0,.06-.3,1,1,0,0,0,0-.17A1.16,1.16,0,0,0,435.05,256.51Z"/><circle class="cls-2" cx="250" cy="398.28" r="11.4"/><path class="cls-12" d="M217.63,240a3.48,3.48,0,0,0-1-.72,3,3,0,0,0-.64-.2,1.55,1.55,0,0,0-.48,0c-.09,0,.07,0,0,0a1.26,1.26,0,0,0-.28,0,.48.48,0,0,0,0,.92l.17,0h0l.16.07.36.13.08,0,.15.08.15.1.07,0h0l.28.25.12.13.05.07h0a.61.61,0,0,1,.07.1,2.52,2.52,0,0,0-1.28,2.28,1.73,1.73,0,0,0,.85,1.48,1.42,1.42,0,0,0,1.73-.31C219.34,243.23,218.76,241.11,217.63,240Z"/><path class="cls-12" d="M282.46,244.09a1.51,1.51,0,0,0-1.84-1.1c0-.06,0-.12,0-.19s0-.06,0-.1h0a3.43,3.43,0,0,1,.11-.46l.06-.2a.42.42,0,0,0,0-.1h0c.06-.13.13-.26.2-.39l.15-.23,0,0s0,0,0,0l.31-.35a1.05,1.05,0,0,0,.24-.6.76.76,0,0,0,.06-.27.21.21,0,0,0-.11-.19.65.65,0,0,0-.29-.07.92.92,0,0,0-.74.09,2,2,0,0,0-.48.43,4.53,4.53,0,0,0-.64,1,4.42,4.42,0,0,0-.42,2.24,2.6,2.6,0,0,0,1.27,2.25A1.5,1.5,0,0,0,282.46,244.09Z"/><path class="cls-15" d="M269.39,179.73c-.71-.29-1.44-.53-2.17-.78-1.32-.44-2.66-.83-4-1.17a58.56,58.56,0,0,0-25.34-.72c-1.59.31-3.15.69-4.7,1.15-.78.23-1.55.49-2.3.79a2.7,2.7,0,0,0-1.65,1.13.18.18,0,0,0,.07.25,2.12,2.12,0,0,0,1.51,0l2.13-.56c1.34-.37,2.7-.69,4.07-1a56.37,56.37,0,0,1,8.29-1.12,57,57,0,0,1,16.41,1.36c1.5.35,3,.76,4.46,1.24.77.24,1.53.51,2.29.79s1.39.6,2,.16a.39.39,0,0,0,.16-.41C270.52,180.22,270,180,269.39,179.73Z"/><path class="cls-15" d="M293.68,234.61a3.55,3.55,0,0,0-2.47-.08c-.87.14-1.74.23-2.62.29a35.12,35.12,0,0,1-5.23,0,35.73,35.73,0,0,1-10.24-2.41,33.58,33.58,0,0,1-9.05-5.34,42.42,42.42,0,0,1-7.5-8.33c-1.23-1.76-2.38-3.58-3.47-5.43s-2.12-3.84-3.33-5.65a.69.69,0,0,0-.38-.29c0-.27-.13-.55-.18-.81a.26.26,0,0,0-.43-.11,6.32,6.32,0,0,0-.79.76,4.77,4.77,0,0,0-.51,1.23c-.3.82-.64,1.63-1,2.42a38.54,38.54,0,0,1-2.53,4.53,47,47,0,0,1-6.68,8c-5.19,5-11.42,9.51-18.54,11.3a27.07,27.07,0,0,1-6.4.83,29.65,29.65,0,0,1-3.26-.16c-1.07-.11-2.11-.33-3.19-.34a.34.34,0,0,0-.17.64,12,12,0,0,0,5.72,1.36,25.81,25.81,0,0,0,6-.42,33.7,33.7,0,0,0,10.94-4.22,53,53,0,0,0,16.3-15.07,38.06,38.06,0,0,0,3.11-5.26c.44-.91.85-1.85,1.22-2.8A1.8,1.8,0,0,1,249,209c.74,1.57,1.61,3.08,2.47,4.58,1,1.71,2,3.39,3.12,5a46.28,46.28,0,0,0,7.65,9A36.38,36.38,0,0,0,282,236.31a35.64,35.64,0,0,0,6.11.2c1,0,2.06-.16,3.08-.3a11.69,11.69,0,0,0,1.55-.27,1.76,1.76,0,0,0,1.1-.78A.4.4,0,0,0,293.68,234.61Z"/><path class="cls-15" d="M210.16,254.19c-.47-2-1.06-4.05-1.63-6.06l-.86-3a9.69,9.69,0,0,0-1.14-3,.3.3,0,0,0-.55.15,8.45,8.45,0,0,0,.4,2.75c.21.95.45,1.89.68,2.84.45,1.88.93,3.76,1.35,5.64a29.42,29.42,0,0,1,.8,10.89c-1,6.83-4.77,12.85-6.48,19.49a20.16,20.16,0,0,0-.71,5.68c.06,1.75.37,3.7,1.86,4.81a.25.25,0,0,0,.37-.21c0-1.62-.53-3.19-.57-4.81a18.63,18.63,0,0,1,.63-4.93,80.36,80.36,0,0,1,3.48-9.72,46.63,46.63,0,0,0,3-9.67A27.69,27.69,0,0,0,210.16,254.19Z"/><path class="cls-15" d="M215.78,277.8c1.32-4.5,3.07-9,3-13.79,0-2.36-.32-5.2-1.93-7.05-.14-.17-.36,0-.33.19.18,1.13.5,2.24.65,3.37a17.4,17.4,0,0,1,.14,3.38,30.71,30.71,0,0,1-1.15,6.8c-1.26,4.68-3.16,9.21-3.57,14.08a11.84,11.84,0,0,0,.16,3.71,5.27,5.27,0,0,0,1.82,2.91c.11.09.3,0,.25-.14a19,19,0,0,1-.5-3.18,17.12,17.12,0,0,1-.07-3.2A35,35,0,0,1,215.78,277.8Z"/><path class="cls-15" d="M225,285.12a12.39,12.39,0,0,1-.15-3c.06-1,.18-2,.33-3a8,8,0,0,1,.29-1.37c.11-.34.43-.72.41-1.08a.3.3,0,0,0-.21-.27c-.45-.17-.93.28-1.19.6a3.89,3.89,0,0,0-.71,1.56,21.16,21.16,0,0,0-.53,3.54,10.29,10.29,0,0,0,.25,3.54,4.37,4.37,0,0,0,2,2.56c.16.1.29-.08.23-.23A13.06,13.06,0,0,1,225,285.12Z"/><path class="cls-15" d="M289.38,264.8a32.18,32.18,0,0,1,.09-11.16c.39-2,.93-4.08,1.43-6.11.25-1,.47-2,.7-3a8.81,8.81,0,0,0,.41-3.09.19.19,0,0,0-.35-.1,7.2,7.2,0,0,0-1,2.3c-.3.93-.58,1.86-.86,2.8-.54,1.77-1.05,3.55-1.47,5.36a32.19,32.19,0,0,0-.85,10.84c.7,6.73,3.11,13.25,2.83,20.08a20.26,20.26,0,0,1-.82,5.06c-.48,1.6-1.28,3.09-1.7,4.71a.31.31,0,0,0,.45.35,7.23,7.23,0,0,0,2.57-3.68,18.94,18.94,0,0,0,1-4.44,33.5,33.5,0,0,0-.38-9.27C290.86,271.9,289.94,268.38,289.38,264.8Z"/><path class="cls-15" d="M284.84,272.48a52.29,52.29,0,0,0-1.26-6.92c-.31-1.3-.62-2.6-.88-3.91-.13-.65-.25-1.3-.36-2a19.35,19.35,0,0,1-.47-2.21.11.11,0,0,0-.22,0c0,.56-.24,1.08-.28,1.64a13,13,0,0,0,.07,1.87c.11,1.15.29,2.29.49,3.43.41,2.28.94,4.54,1.21,6.85a34.75,34.75,0,0,1-1,13c-.33,1.21-.74,2.39-1.16,3.56a10.81,10.81,0,0,0-.82,3.44.16.16,0,0,0,.27.11c1.75-1.35,2.43-3.68,3-5.71a36.94,36.94,0,0,0,1.3-6.59A33.85,33.85,0,0,0,284.84,272.48Z"/><path class="cls-15" d="M276.44,279a9.79,9.79,0,0,0-.48-2,3.72,3.72,0,0,0-.35-.76c-.11-.17-.31-.24-.39-.35a.14.14,0,0,0-.25.07c0,.13-.11.26-.14.39a3.07,3.07,0,0,0,0,.8c.06.54.13,1.08.18,1.62a19.78,19.78,0,0,1,.06,3.08,22.39,22.39,0,0,1-.43,3.05c-.13.62-.21,2-1,2.1a.16.16,0,0,0-.07.26c.71.58,1.61,0,2.05-.65a7.8,7.8,0,0,0,.9-3.63A16.65,16.65,0,0,0,276.44,279Z"/><path class="cls-15" d="M242.93,197.8a.15.15,0,0,0-.28.12,11.61,11.61,0,0,1-.44,5.81,25.94,25.94,0,0,1-2,5,36.1,36.1,0,0,1-5.78,8.19,37.76,37.76,0,0,1-16.95,10.41,32.06,32.06,0,0,1-5.64,1.15,12.93,12.93,0,0,1-3.17,0,26,26,0,0,1-3-.81.12.12,0,0,0-.13.18c1.06,1.48,3.18,1.82,4.88,1.91a21.67,21.67,0,0,0,5.67-.56,36.2,36.2,0,0,0,10.1-3.81,38.61,38.61,0,0,0,15-15.11,29.65,29.65,0,0,0,2.51-5.85A7.43,7.43,0,0,0,242.93,197.8Z"/><path class="cls-15" d="M238.92,190.05c0-.15-.24-.13-.28,0-.42,1.49-.91,2.95-1.24,4.47a38.65,38.65,0,0,1-1.27,4.51,33,33,0,0,1-18.61,19.6,38.63,38.63,0,0,1-4.93,1.67c-1.7.46-3.44.73-5.12,1.23a.24.24,0,0,0,.06.46c3.16.42,6.56-.53,9.52-1.59a33.26,33.26,0,0,0,8.6-4.59,34.71,34.71,0,0,0,11.61-15.2,32.34,32.34,0,0,0,1.6-5.27,13.51,13.51,0,0,0,.33-2.62A18.44,18.44,0,0,0,238.92,190.05Z"/><path class="cls-15" d="M231.67,188.64a29.3,29.3,0,0,1-1.52,3.38c-.52,1.1-.94,2.24-1.46,3.34a36.41,36.41,0,0,1-3.64,6.13,38.72,38.72,0,0,1-10.56,9.73c-1.14.71-2.32,1.35-3.51,1.95-.63.32-1.26.61-1.89.9-.27.13-1.71.93-1.83.39a.1.1,0,0,0-.18,0,.49.49,0,0,0,.22.66,1.69,1.69,0,0,0,1.36.07,27.42,27.42,0,0,0,3.75-1.34,34.4,34.4,0,0,0,6.88-4.15,37.28,37.28,0,0,0,10.18-12.27,27.93,27.93,0,0,0,1.8-4.12,25.68,25.68,0,0,0,.72-4.55A.17.17,0,0,0,231.67,188.64Z"/><path class="cls-15" d="M286.27,224c-1.34,0-2.69.2-4,.27a17.15,17.15,0,0,1-4.11-.23,20.49,20.49,0,0,1-7.6-3.15c-4.95-3.28-8.34-8.44-11.32-13.46-.87-1.48-1.77-3-2.58-4.47a12.88,12.88,0,0,1-1.11-2.59,15.84,15.84,0,0,0-.53-2.31s-.09,0-.13,0c-1.12,1-.4,3.18.08,4.38a43.36,43.36,0,0,0,2.26,4.46,66.67,66.67,0,0,0,5.11,8.15c3.71,4.91,8.57,9.08,14.71,10.47,3,.69,6.87,1,9.37-1.22C286.5,224.2,286.41,224,286.27,224Z"/><path class="cls-15" d="M288.14,213.6c-.58,1.22-2.34,1.38-3.52,1.25a22.9,22.9,0,0,1-4.3-1.06,26.45,26.45,0,0,1-7.42-3.51c-4.09-2.86-7.13-7-9.69-11.22-.75-1.24-1.46-2.5-2.18-3.76a21.62,21.62,0,0,0-2.23-3.5c-.07-.08-.2,0-.18.1a18.12,18.12,0,0,0,1.43,3.75c.57,1.26,1.21,2.49,1.87,3.71a45.27,45.27,0,0,0,4.48,6.87,28,28,0,0,0,5.85,5.54,28.72,28.72,0,0,0,8.27,3.79,12.64,12.64,0,0,0,5.14.88,3.13,3.13,0,0,0,2.74-2.73C288.43,213.56,288.22,213.44,288.14,213.6Z"/><path class="cls-15" d="M287.76,207.27a5.93,5.93,0,0,0-2.34-1.27c-.86-.34-1.71-.7-2.53-1.12a25.49,25.49,0,0,1-4.75-3.06,28.32,28.32,0,0,1-8.43-11.48c-.21-.5-.39-1-.59-1.52a15.2,15.2,0,0,1-.66-1.5.08.08,0,0,0-.15,0c.08.49,0,1,.05,1.48a10.86,10.86,0,0,0,.34,1.5,22.63,22.63,0,0,0,1,2.76,25.81,25.81,0,0,0,2.91,5.08,27.35,27.35,0,0,0,8.85,7.76,24.21,24.21,0,0,0,3,1.39,5.16,5.16,0,0,0,3.22.47A.32.32,0,0,0,287.76,207.27Z"/><path class="cls-15" d="M257.07,161.63a24.5,24.5,0,0,1-3.69-1.48,11.61,11.61,0,0,0-8.13-.21,8.67,8.67,0,0,0-1.89.91,3.6,3.6,0,0,0-.71.58c-.25.27-.21.46-.33.78,0,0,0,.08.06.08a3.85,3.85,0,0,0,.68,0,7.45,7.45,0,0,0,.93-.36,13.32,13.32,0,0,1,1.83-.66,11.08,11.08,0,0,1,4.09-.4,10.93,10.93,0,0,1,3.85,1.16c1,.48,2.8,1.23,3.41-.17A.16.16,0,0,0,257.07,161.63Z"/><path class="cls-15" d="M265.18,169.87c-.78-.86-2.22-1.12-3.29-1.42s-2.43-.65-3.66-1a69.11,69.11,0,0,0-7.39-1.64,24.25,24.25,0,0,0-12.8,1.57,18.14,18.14,0,0,0-3.18,1.66c-.77.52-2.11,1.29-2.28,2.29a.09.09,0,0,0,.08.11c.86.05,1.76-.7,2.49-1.1.91-.49,1.84-1,2.79-1.36a24.66,24.66,0,0,1,5.95-1.63c4.56-.67,8.93.36,13.33,1.49,1.34.35,2.68.7,4,1,1.14.27,2.66.81,3.82.41A.26.26,0,0,0,265.18,169.87Z"/><path class="cls-15" d="M259.65,174.93a35.87,35.87,0,0,0-11.57-2.77,29.53,29.53,0,0,0-5.79.33,27.83,27.83,0,0,0-2.85.62,6.67,6.67,0,0,0-2.68,1.14.39.39,0,0,0,.28.66,10.75,10.75,0,0,0,2.74-.55,28.05,28.05,0,0,1,2.88-.53,28.44,28.44,0,0,1,5.76-.23,28,28,0,0,1,5.67.94c1.81.49,3.68,1.49,5.56.81A.22.22,0,0,0,259.65,174.93Z"/><path class="cls-5" d="M239.7,236.2c-.26-1.11-1.51-1.74-2.49-2.12a6,6,0,0,0-2.71-.39c-1.71.16-4.54,1.14-4.46,3.26a.89.89,0,0,0,1.1.83c-.09,0-.06,0,0,0a1.29,1.29,0,0,0,.57-.16,3.58,3.58,0,0,0,.48-.24c.29-.16.55-.36.83-.52l.22-.11.13-.06.4-.14.48-.12h.06l.25,0h.49l.26,0h0a8.73,8.73,0,0,1,1,.28l0,0,.23.12.43.25.26.17h0l.11.09a1.92,1.92,0,0,0,.8.35A1.25,1.25,0,0,0,239.7,236.2Z"/><path class="cls-5" d="M268.18,236.2c-.26-1.11-1.51-1.74-2.49-2.12a6,6,0,0,0-2.71-.39c-1.71.16-4.54,1.14-4.46,3.26a.88.88,0,0,0,1.1.83c-.1,0-.06,0,0,0a1.29,1.29,0,0,0,.57-.16,4.3,4.3,0,0,0,.48-.24c.28-.16.54-.36.83-.52a1.51,1.51,0,0,1,.22-.11l.12-.06.41-.14.48-.12h.06l.24,0h.5l.25,0h0a8.73,8.73,0,0,1,1,.28l0,0,.22.12c.15.08.3.16.44.25l.26.17h0l.11.09a1.94,1.94,0,0,0,.79.35A1.25,1.25,0,0,0,268.18,236.2Z"/><path class="cls-5" d="M237.09,243.3a2.23,2.23,0,0,0-2.69-1.56,2.5,2.5,0,0,0-1.18.79,3.57,3.57,0,0,0-.84,1.8,5.2,5.2,0,0,0,.1,2.15,5,5,0,0,0,.71,1.61,2.29,2.29,0,0,0,1.36,1,2.19,2.19,0,0,0,2-.56C237.66,247.55,237.82,245,237.09,243.3Z"/><path class="cls-5" d="M266,243.3a2.23,2.23,0,0,0-2.69-1.56,2.42,2.42,0,0,0-1.17.79,3.59,3.59,0,0,0-.85,1.8,5.33,5.33,0,0,0,.81,3.76,2.29,2.29,0,0,0,1.36,1,2.21,2.21,0,0,0,2-.56C266.55,247.55,266.71,245,266,243.3Z"/><path class="cls-12" d="M253,256.19Z"/><path class="cls-12" d="M253,255.67a.73.73,0,0,0-.69-.52,1.28,1.28,0,0,0-.34.07.52.52,0,0,0-.13.06h0a2.45,2.45,0,0,0-.45.17c-.24.12-.46.27-.69.4s-.22.12-.33.18h0l-.2.06a2.22,2.22,0,0,1-.37.09h-.21a2.26,2.26,0,0,1-.37,0h0l-.17,0-.42-.11-.16-.06h0a.26.26,0,0,0-.09,0l-.18-.09-.13-.06-.34-.19a4.32,4.32,0,0,0-.53-.26.59.59,0,0,0-.92.63v0c0,.62.68,1.34,1.09,1.66a3.82,3.82,0,0,0,2.28.75,4.48,4.48,0,0,0,2.18-.56,2.65,2.65,0,0,0,1-.88,1.79,1.79,0,0,0,.28-.77v-.06A1,1,0,0,0,253,255.67Z"/><path class="cls-12" d="M252.69,263.79a.83.83,0,0,0-.6-.6,1.84,1.84,0,0,0-.62,0,1.47,1.47,0,0,0-.57.35h0l-.09.07-.26.14-.06,0h0l-.29.09-.29.06h-.13a5.42,5.42,0,0,1-.57,0l-.14,0-.29-.06-.28-.09h0l-.16-.07a1.59,1.59,0,0,0-.74-.15.57.57,0,0,0-.56.57,1.61,1.61,0,0,0,1.08,1.33,3.91,3.91,0,0,0,1.69.38,4.18,4.18,0,0,0,1.52-.28,4.09,4.09,0,0,0,.79-.38,1.44,1.44,0,0,0,.53-.51A1.31,1.31,0,0,0,252.69,263.79Z"/><path class="cls-16" d="M235,254.25a3.46,3.46,0,0,0-1.58-1.39,7.67,7.67,0,0,0-3.91-.5l-.45,0-.22,0c-1.58.29-3.12,1.12-3.33,2.85s1.2,2.92,2.66,3.37a10.43,10.43,0,0,0,2.23.32,11.12,11.12,0,0,0,2.08,0,3.84,3.84,0,0,0,2.17-.93,3.12,3.12,0,0,0,.95-2A2.34,2.34,0,0,0,235,254.25Z"/><path class="cls-16" d="M271.8,254.25a3.48,3.48,0,0,0-1.57-1.39,7.72,7.72,0,0,0-3.92-.5l-.45,0-.22,0c-1.58.29-3.12,1.12-3.32,2.85s1.2,2.92,2.65,3.37a10.43,10.43,0,0,0,2.23.32,11.11,11.11,0,0,0,2.08,0,3.84,3.84,0,0,0,2.17-.93,3.12,3.12,0,0,0,.95-2A2.34,2.34,0,0,0,271.8,254.25Z"/><path class="cls-11" d="M273.62,292.84a.7.7,0,0,0-1.35,0c-.59,2.33-.34,4.92-.38,7.31q-.06,3.83-.27,7.65-.4,7.56-1.41,15.1c-.67,5-1.55,10-2.61,14.93-.53,2.5-1.11,5-1.75,7.46-.31,1.23-.64,2.47-1,3.7a20.27,20.27,0,0,0-.83,3,.94.94,0,0,0,.68.89l.16.06a1.13,1.13,0,0,0,1.28-.51,40.08,40.08,0,0,0,2-7c.63-2.47,1.2-5,1.73-7.46q1.54-7.41,2.51-14.92c.66-5.06,1.11-10.15,1.36-15.24.13-2.55.2-5.1.23-7.65C274,297.77,274.22,295.16,273.62,292.84Z"/><path class="cls-11" d="M228.83,322.37c-.88-4.89-1.65-9.78-2.08-14.73q-.33-3.75-.41-7.52c0-1.26,0-2.52,0-3.78a12.36,12.36,0,0,0-.09-3.49c-.14-.54-1-.74-1.29-.17-.88,2-.61,4.78-.61,7,0,2.52.11,5,.31,7.53.39,4.89,1.08,9.76,1.85,14.6,1.6,10,3.57,19.94,4.56,30,.14,1.44,2.38,1.48,2.28,0C232.75,341.9,230.58,332.12,228.83,322.37Z"/><path class="cls-11" d="M199.83,337.51a11.24,11.24,0,0,0-2.06,3.47c-.62,1.23-1.22,2.48-1.79,3.73s-1.1,2.54-1.62,3.81-1.33,2.6-1.09,3.86c.13.69,1,.73,1.42.37a4.35,4.35,0,0,0,1-1.86c.24-.6.46-1.2.7-1.8.5-1.24,1-2.46,1.55-3.69s1.06-2.46,1.62-3.68A12.53,12.53,0,0,0,201,338C201.11,337.35,200.25,337.14,199.83,337.51Z"/><path class="cls-11" d="M308.22,351.13c-1.06-2.94-2.39-5.81-3.69-8.65-.63-1.38-1.3-2.75-2-4.09a4.19,4.19,0,0,0-1.11-1.63,1.09,1.09,0,0,0-1.48.07.53.53,0,0,0,.1.81,2.82,2.82,0,0,1,.8,1.26l.78,1.78c.54,1.23,1.1,2.45,1.62,3.69,1,2.42,1.86,4.9,2.77,7.37C306.51,353.11,308.72,352.53,308.22,351.13Z"/><path class="cls-4" d="M122.39,403.4s21.52-6.89,20.34,13-14.29,22-22.36,18.66v-5.55s11.77,3.53,13.79-7.4-3.2-13.95-10.76-11.6Z"/><path class="cls-4" d="M120.26,443.38H90.14a3.33,3.33,0,0,1-3.32-3.08l-3.48-44.55a3.33,3.33,0,0,1,3.32-3.6h37.08a3.34,3.34,0,0,1,3.33,3.6l-3.48,44.55A3.34,3.34,0,0,1,120.26,443.38Z"/><path class="cls-5" d="M457.24,460.47H42.76a8.56,8.56,0,0,1-8.54-8.54h0a8.57,8.57,0,0,1,8.54-8.55H457.24a8.57,8.57,0,0,1,8.54,8.55h0A8.56,8.56,0,0,1,457.24,460.47Z"/><path class="cls-17" d="M244.58,117c.46-.43-3.06-7.49-5.5-10.25s-15.29-12.53-11-32.86,27.21-29.35,43-15.14,2.69,40.06-1.07,45.71a63,63,0,0,0-5.51,11.47Z"/><path class="cls-5" d="M250.12,130.46s-.09,6.65,4.94,6.36,5.32-7.48,5.32-7.48Z"/><path class="cls-6" d="M244.55,122.75s-2.36,4.29,1,7.34,13.85,1.8,17.18.28,2.91-5.27,2.35-7.76-14-.69-14.55-.83A53.26,53.26,0,0,0,244.55,122.75Z"/><path class="cls-6" d="M243.63,116.06a5.1,5.1,0,0,0-1,3.93,5.94,5.94,0,0,0,1.91,4c3.67,3.36,15.29,2,19,.3a5.1,5.1,0,0,0,2.93-4c.26-1.75.52-4.1-1-5.41s-4.27-.68-6.18-.59c-2.09.1-4.17.27-6.25.33a41.27,41.27,0,0,0-7.12.28A4.09,4.09,0,0,0,243.63,116.06Z"/><path class="cls-18" d="M266.36,90.28a6.51,6.51,0,0,0-5.16-1.86,7.68,7.68,0,0,0-4.65,1.82,6.78,6.78,0,0,0-8.66.17l-.14-.08a4.79,4.79,0,0,0-5.56,1.08c-1.64,1.67-2.07,4.15-2,6.41a15.49,15.49,0,0,0,1.65,6.57,13.55,13.55,0,0,0,4.54,5.11c.79.58,1.74-.69,1-1.35a15.93,15.93,0,0,1-4.17-6.66c-.71-2.29-1.16-5.36,0-7.56a2.84,2.84,0,0,1,2.83-1.67,1.41,1.41,0,0,1,.22.06,7,7,0,0,0-.85,2.73,5.6,5.6,0,0,0,1.74,4.88,3.14,3.14,0,0,0,4.4-.32c1.28-1.64.19-3.88-.59-5.5a10.81,10.81,0,0,0-1.38-2.2,4.37,4.37,0,0,1,1.54-.73A4.58,4.58,0,0,1,255,92a7.84,7.84,0,0,0-1.25,3.68c-.13,1.73.48,4,2.54,4.16,1.89.16,2.61-1.79,2.79-3.34a6.9,6.9,0,0,0-1-4.54,5.5,5.5,0,0,1,4.89-1A2.78,2.78,0,0,1,264.73,92a5.47,5.47,0,0,1,.41,2.21,26.2,26.2,0,0,1-.06,4.77,28.44,28.44,0,0,1-2.56,8.64.38.38,0,0,0-.44.09,1.33,1.33,0,0,0,.79,2.23,1.15,1.15,0,0,0,1.24-.51,25.36,25.36,0,0,0,3.41-13C267.53,94.48,267.64,91.81,266.36,90.28Zm-17.43,8c-.66-.25-1-1.21-1.09-1.82a4.55,4.55,0,0,1,.32-2.63l.28.44a8.35,8.35,0,0,1,1.42,3.3C249.9,98.2,249.54,98.52,248.93,98.28Zm7.36-.9c-.34-.15-.25-1.24-.23-1.55a5.48,5.48,0,0,1,.48-1.91,4.26,4.26,0,0,1,.22.63C256.88,95,257,97.72,256.29,97.38Z"/><path class="cls-18" d="M242.77,60.46a5.8,5.8,0,0,0-3.26,1.2,14.06,14.06,0,0,0-2.23,1.91A19.39,19.39,0,0,0,234.16,68a29,29,0,0,0-2,5.64,12.42,12.42,0,0,0-.65,3.17,3.82,3.82,0,0,0,.63,2.29,2.55,2.55,0,0,0,2.7,1c2.22-.56,2.67-3.24,3.36-5.08.14-.37.29-.73.44-1.1v0c.09-.21.18-.41.28-.62.34-.73.72-1.46,1.11-2.16s.69-1.14,1.07-1.69l0,0,.24-.29c.23-.27.46-.53.7-.77s.5-.49.76-.71l.35-.3.26-.21.06,0c.12-.08.26-.16.38-.25a7,7,0,0,0,1.62-1.65C246.92,63.29,245,60.34,242.77,60.46Z"/><path class="cls-18" d="M255.39,56a3.54,3.54,0,0,0-2.42-.44c-.61.08-1.22.15-1.82.29a7.76,7.76,0,0,0-1.65.65,3.39,3.39,0,0,0-1.65,1.86,2.14,2.14,0,0,0,1,2.82l.09.07-.08-.07a2.44,2.44,0,0,0,1.07.41l.58.07a3.19,3.19,0,0,0,.62,0c.66-.07,1.3-.16,1.95-.25l-.77.1c1-.14,2.21,0,3.12-.62a2.91,2.91,0,0,0,1.4-2.44A2.87,2.87,0,0,0,255.39,56Z"/><path class="cls-17" d="M219.49,109.26c.06,0,.06,0,0,0Z"/><path class="cls-17" d="M226.79,104.94a1.8,1.8,0,0,0-.57-.74,2.08,2.08,0,0,0-1.11-.4h0l-.09,0-.12-.05a2.84,2.84,0,0,0-1.23,0l-.53.12a7.24,7.24,0,0,0-1.12.34A5.38,5.38,0,0,0,219.2,106c-.12.13-.24.26-.35.4a1,1,0,0,0-.25.42s0,.09,0,.13l-.08.14a1.46,1.46,0,0,0,.87,2.13l.15.05a2.37,2.37,0,0,1-.49-.34,2.1,2.1,0,0,0,1.11.53l.5,0a3.13,3.13,0,0,0,1.82-.09c.37-.13.73-.29,1.09-.43a9.57,9.57,0,0,0,1.44-.7c.16-.09.32-.18.47-.28a3.15,3.15,0,0,0,.9-.92l.08-.1A1.9,1.9,0,0,0,226.79,104.94Z"/><path class="cls-17" d="M220.25,78.86c-.94-1-2.5-1.09-3.79-1-.5,0-1,.12-1.51.19a3.11,3.11,0,0,0-1.33.39,3.37,3.37,0,0,0-.31.21,3.46,3.46,0,0,0-.7.62,1.69,1.69,0,0,0-.38.74c0,.11,0,.07.08-.12a1.57,1.57,0,0,0,.25,1.87c-.39-.38.17.28.22.34a2.61,2.61,0,0,0,1.06.6,2.8,2.8,0,0,0,1.25.21,14.94,14.94,0,0,0,2-.27c1.28-.27,2.7-.66,3.39-1.87A1.62,1.62,0,0,0,220.25,78.86Z"/><path class="cls-17" d="M227.68,55.42c0-.05-.06-.11-.09-.17s-.08-.18-.14-.34a2.76,2.76,0,0,0-.58-.65,10.73,10.73,0,0,0-1.26-1,6.47,6.47,0,0,0-1.58-.57l-.54-.17a5.8,5.8,0,0,0-.93-.14,2.91,2.91,0,0,0-1.52.07,3.13,3.13,0,0,1-.6.16,1.68,1.68,0,0,0-1,.77,1.75,1.75,0,0,0-.16,1.29,3.41,3.41,0,0,0,1.4,2.17,5.46,5.46,0,0,0,1.92.73,8.73,8.73,0,0,0,2,.24c.23,0,.45,0,.68,0a4.91,4.91,0,0,0,.78,0h.24a1.54,1.54,0,0,0,1.35-.78A1.59,1.59,0,0,0,227.68,55.42Z"/><path class="cls-17" d="M249.81,39.46c-.06-.29-.12-.58-.2-.86a11.53,11.53,0,0,0-.79-2.15,7.12,7.12,0,0,0-.6-.84,2.41,2.41,0,0,0-1-.78c-.38-.17-.36-.15.06,0l-.21-.09a2,2,0,0,0-1.4-.18,1.89,1.89,0,0,0-1.09.83l-.09.17c.3-.38.33-.4.07-.07a2.52,2.52,0,0,0-.55,1.52,4.91,4.91,0,0,0,.14,1.38,14.27,14.27,0,0,0,.84,2.29,6.39,6.39,0,0,0,1.19,2c.19.18.37.38.56.56a1.91,1.91,0,0,0,2.62,0,2.3,2.3,0,0,0,.63-1.65c0-.27.09-.56.1-.84A5.32,5.32,0,0,0,249.81,39.46Z"/><path class="cls-17" d="M281.51,43.67l0,.13a3.42,3.42,0,0,0-.07-1c0-.08-.07-.16-.11-.25s0-.1,0-.15a1.53,1.53,0,0,0-1.43-1.09h-.15a2.17,2.17,0,0,0-.57,0,5.75,5.75,0,0,0-.72.15l.65-.09a3.61,3.61,0,0,0-2.26,1,6.42,6.42,0,0,0-1,1l-1.12,1.47c-1,1.29-1.87,2.82-1.48,4.49a2,2,0,0,0,1.86,1.41c1.69,0,3-1.3,4-2.53.39-.47.79-.95,1.17-1.43a6.26,6.26,0,0,0,.78-1.19,4.39,4.39,0,0,0,.37-.89A2.51,2.51,0,0,0,281.51,43.67Z"/><path class="cls-17" d="M292.4,80.17a.4.4,0,0,0-.07-.07l-.11-.15a2.25,2.25,0,0,0-1.18-.64l.57.24a3.68,3.68,0,0,0-1.68-.43,6,6,0,0,0-1.34.09c-.49.09-1,.21-1.46.31a10.09,10.09,0,0,0-1.42.43,3.58,3.58,0,0,0-2.07,1.56,1.94,1.94,0,0,0,.28,2.23,3.56,3.56,0,0,0,2.43.94,8,8,0,0,0,1.47,0l1.48-.19a5,5,0,0,0,2.52-1,2.49,2.49,0,0,0,1-1.3c0-.08.05-.16.08-.23A1.79,1.79,0,0,0,292.4,80.17Z"/><path class="cls-17" d="M286.77,111.6a4,4,0,0,0-.51-1,2.4,2.4,0,0,0-.85-.73,6.69,6.69,0,0,0-1.15-.45l-1.2-.37a6.26,6.26,0,0,0-.61-.21l-.59-.1a6.73,6.73,0,0,0-1.08-.17c-.2,0-.42,0-.62,0a1.88,1.88,0,0,0-1.61,2.81,5.21,5.21,0,0,0,1,1.25,7.08,7.08,0,0,0,1.47,1c1.39.69,3.1,1.64,4.59.66a2.49,2.49,0,0,0,1-1.16A2.25,2.25,0,0,0,286.77,111.6Z"/><path class="cls-11" d="M265.52,122.6l-.16-.2a.85.85,0,0,0-1-.15,30.45,30.45,0,0,0-4.67.5l-5.22.61c-3.13.36-6.32.76-9.37-.25-1.06-.34-1.46,1.27-.45,1.65,3.08,1.16,6.41,1.06,9.64.78l5.4-.48a25.73,25.73,0,0,0,5.35-.61A1.12,1.12,0,0,0,265.52,122.6Z"/><path class="cls-5" d="M153.47,109.51s16.21,22.31,25.07,13.45-21.4-19.87-21.4-19.87Z"/><circle class="cls-6" cx="141.55" cy="93.3" r="21.4"/><circle class="cls-2" cx="141.55" cy="93.3" r="14.37"/><path class="cls-11" d="M154.92,99.69a10.45,10.45,0,0,0-1.81,1.89,12,12,0,0,1-1.67,1.88,13.13,13.13,0,0,1-4.3,2.62,13.5,13.5,0,0,1-10.4-.36,16,16,0,0,1-7.44-7.37,15,15,0,0,1-1.53-5.79,19,19,0,0,1,1-6.2.36.36,0,0,0-.59-.34c-2.24,2.6-2.26,6.6-1.5,9.81a17.58,17.58,0,0,0,4.86,8.5,15.55,15.55,0,0,0,17.58,3.23,15.27,15.27,0,0,0,4.34-3.09,12.82,12.82,0,0,0,1.69-2.11,3.94,3.94,0,0,0,.49-2.38A.42.42,0,0,0,154.92,99.69Z"/><path class="cls-4" d="M88,137.38h-5a17.92,17.92,0,0,0-1.49-3.61L85,130.2a2.78,2.78,0,0,0,0-3.92l-3.16-3.16a2.79,2.79,0,0,0-3.92,0l-3.56,3.57a17.82,17.82,0,0,0-3.61-1.49v-5A2.78,2.78,0,0,0,68,117.38H63.48a2.78,2.78,0,0,0-2.77,2.77v5a17.82,17.82,0,0,0-3.61,1.49l-3.56-3.57a2.79,2.79,0,0,0-3.92,0l-3.16,3.16a2.78,2.78,0,0,0,0,3.92L50,133.77a17.92,17.92,0,0,0-1.49,3.61h-5a2.77,2.77,0,0,0-2.77,2.77v4.47a2.78,2.78,0,0,0,2.77,2.77h5A17.92,17.92,0,0,0,50,151l-3.56,3.57a2.76,2.76,0,0,0,0,3.91l3.16,3.17a2.79,2.79,0,0,0,3.92,0l3.56-3.57a17.82,17.82,0,0,0,3.61,1.49v5.05a2.78,2.78,0,0,0,2.77,2.77H68a2.78,2.78,0,0,0,2.77-2.77v-5.05a17.82,17.82,0,0,0,3.61-1.49l3.56,3.57a2.79,2.79,0,0,0,3.92,0L85,158.48a2.76,2.76,0,0,0,0-3.91L81.42,151a17.92,17.92,0,0,0,1.49-3.61h5a2.78,2.78,0,0,0,2.77-2.77v-4.47A2.77,2.77,0,0,0,88,137.38Zm-22.23,15a10,10,0,1,1,10-10A10,10,0,0,1,65.72,152.4Z"/><path class="cls-6" d="M61.45,174.33l-3.07,1.17a11.73,11.73,0,0,0-1.74-1.85l1.34-3a1.79,1.79,0,0,0-.91-2.38l-2.65-1.19A1.81,1.81,0,0,0,52,168l-1.33,3a11.35,11.35,0,0,0-2.54-.07L47,167.86a1.81,1.81,0,0,0-2.32-1l-2.72,1a1.81,1.81,0,0,0-1,2.32l1.17,3.07A11.67,11.67,0,0,0,40.24,175l-3-1.33a1.8,1.8,0,0,0-2.38.9l-1.19,2.65a1.8,1.8,0,0,0,.91,2.38l3,1.34a11.32,11.32,0,0,0-.07,2.54l-3.07,1.17a1.81,1.81,0,0,0-1,2.32l1,2.71a1.79,1.79,0,0,0,2.32,1l3.07-1.16a11.19,11.19,0,0,0,1.73,1.84l-1.33,3a1.8,1.8,0,0,0,.9,2.38l2.66,1.19a1.8,1.8,0,0,0,2.37-.91l1.34-3a11.32,11.32,0,0,0,2.54.07l1.17,3.06a1.79,1.79,0,0,0,2.32,1l2.71-1a1.81,1.81,0,0,0,1-2.32l-1.17-3.07A11.25,11.25,0,0,0,58,190.05l3,1.34a1.79,1.79,0,0,0,2.38-.91l1.19-2.65a1.82,1.82,0,0,0-.91-2.38l-3-1.33a11.35,11.35,0,0,0,.07-2.54l3.06-1.17a1.79,1.79,0,0,0,1-2.32l-1-2.72A1.81,1.81,0,0,0,61.45,174.33Zm-10,14.27a6.51,6.51,0,1,1,3.76-8.4A6.51,6.51,0,0,1,51.43,188.6Z"/><path class="cls-6" d="M37.87,166.54l0-.19v0h0a1.76,1.76,0,0,0-.33-.89c-.56-.73-1.72-.78-2.56-.87a9.15,9.15,0,0,0-1.17,0,3.38,3.38,0,0,0-.72.08,2,2,0,0,0-.37.12,2.21,2.21,0,0,0-.3.2.62.62,0,0,0,0,1.06q0-.08.06,0l.14.11a1.83,1.83,0,0,0,.33.11,4.78,4.78,0,0,0,.66.11l.24,0,.13,0,.25,0h.13a16,16,0,0,0-2.16,2A16.49,16.49,0,0,0,29.63,172a15.5,15.5,0,0,0-1.44,4c-.23,1.21-.67,3.12.48,4a.15.15,0,0,0,.16,0c1-.66,1-2.23,1.37-3.3a17.14,17.14,0,0,1,1.47-3.48,16.47,16.47,0,0,1,2.14-3,15.37,15.37,0,0,1,1.43-1.37l.42-.31,0,.86a2.24,2.24,0,0,0,.23,1.4,1,1,0,0,0,.7.46.9.9,0,0,0,.81-.26,1.85,1.85,0,0,0,.41-.94,5.7,5.7,0,0,0,0-.71l0-1.29,0-1.23Z"/><path class="cls-4" d="M85.77,163.72a10.21,10.21,0,0,0-1.67,1.68A23.19,23.19,0,0,1,82.4,167a20.34,20.34,0,0,1-3.94,2.53,22.5,22.5,0,0,1-4.28,1.6c-.7.18-1.56.25-2.38.4l.28-.32a12.53,12.53,0,0,0,.79-1,1.78,1.78,0,0,0,.3-.58,1.28,1.28,0,0,0,0-.27,1.16,1.16,0,0,0-.13-.41.16.16,0,0,0-.12-.13,2.11,2.11,0,0,0-.38-.09,1.12,1.12,0,0,0-.36.09,2.4,2.4,0,0,0-.61.43,10.76,10.76,0,0,0-.94,1c-.65.68-1.7,1.5-1.24,2.56a2.88,2.88,0,0,0,1,1l1.1.84c.36.27.72.57,1.1.82a1.53,1.53,0,0,0,1.49.22.5.5,0,0,0,.35-.46,1.63,1.63,0,0,0-.45-1.16,4,4,0,0,0-.73-.56c.53-.07,1-.16,1.57-.26a20.42,20.42,0,0,0,4.81-1.59A22.92,22.92,0,0,0,84,169c1.27-1,3-2.33,3.53-3.87A1.23,1.23,0,0,0,85.77,163.72Z"/><path class="cls-4" d="M474.37,166.16C472.12,161.25,424.13,153,419,155.1c-4.75,1.92-9.7,33.92-9.67,37.63,0,.94,3.48,2.27,8.73,3.7.78,4.28,2.12,11,3,12.09s6.68-4.83,9.45-9.15c15.7,3.32,34.74,6.23,36.78,5.39C470.78,203.3,476.62,171.08,474.37,166.16Z"/><path class="cls-2" d="M427.47,182.09a.9.9,0,0,0,0-.16,3.28,3.28,0,0,0-.26-1.69,3.13,3.13,0,0,0-1.19-1.38,3,3,0,0,0-3.21-.85,3.3,3.3,0,0,0-1.89,3.45,3.91,3.91,0,0,0,.67,1.79,3.18,3.18,0,0,0,1.46,1.17h0a2.46,2.46,0,0,0,2,.57,2.89,2.89,0,0,0,1.82-1.06A2.86,2.86,0,0,0,427.47,182.09Z"/><path class="cls-2" d="M444.45,186a.9.9,0,0,1,0-.16,3.23,3.23,0,0,0-1.45-3.08,3,3,0,0,0-3.22-.84,3.32,3.32,0,0,0-1.89,3.45,3.91,3.91,0,0,0,.67,1.79,3.3,3.3,0,0,0,1.46,1.17h0a2.46,2.46,0,0,0,2,.57,2.74,2.74,0,0,0,2.37-2.9Z"/><path class="cls-2" d="M461.42,189.87l0-.16a3.28,3.28,0,0,0-.26-1.69,3.35,3.35,0,0,0-1.19-1.39,3,3,0,0,0-3.22-.84,3.3,3.3,0,0,0-1.88,3.45,3.7,3.7,0,0,0,.67,1.79A3.27,3.27,0,0,0,457,192.2h0a2.43,2.43,0,0,0,2,.57,2.89,2.89,0,0,0,1.83-1.06A2.86,2.86,0,0,0,461.42,189.87Z"/><path class="cls-9" d="M333.24,78.93s-7.95,32.72-7.64,37.3S375.74,135.8,380,134.88s11.31-32.71,11.31-32.71Z"/><path class="cls-6" d="M332,77.1c-1.87,2.53,16.82,33.32,24.46,35.46s34.85-5.81,37-10.7S336.3,71.29,332,77.1Z"/><path class="cls-11" d="M388.77,104.38c-1.09-.27-1.89.26-2.83.79s-1.94,1-2.94,1.53a54,54,0,0,1-6.14,2.55c-4.28,1.48-9,2.82-13.58,2.73-9.15-.19-15.19-8.07-19.67-15.11-2.93-4.61-5.58-9.43-8.69-13.93a.65.65,0,0,0-1.12.65c2.28,4.71,5,9.26,7.52,13.84,2.3,4.13,4.79,8.25,8.3,11.48A21.41,21.41,0,0,0,361,114.7c4.86.69,10-.38,14.6-1.76a59,59,0,0,0,7.42-2.76c1.28-.57,2.53-1.19,3.76-1.86s2.51-1.15,2.84-2.48A1.19,1.19,0,0,0,388.77,104.38Z"/><path class="cls-19" d="M343.83,108.23a3.32,3.32,0,0,0-2.11-.12c-.68.24-1.34.57-2,.85l-4.16,1.74c-1.37.57-2.75,1.17-4.12,1.76-1.18.51-3.09.93-3.73,2.15a.63.63,0,0,0,.38.92c1.3.43,3-.61,4.19-1.07,1.4-.54,2.8-1.09,4.19-1.65l4.16-1.71c.66-.28,1.36-.51,2-.83a3.36,3.36,0,0,0,1.39-1.59A.32.32,0,0,0,343.83,108.23Z"/><path class="cls-19" d="M379.92,130.2q-.63-.9-1.23-1.8c-.78-1.17-1.52-2.37-2.26-3.57s-1.4-2.35-2.05-3.55a21.78,21.78,0,0,0-2.18-3.7.82.82,0,0,0-1.39.58,14.19,14.19,0,0,0,1.34,3.83c.53,1.17,1.1,2.32,1.7,3.46s1.23,2.24,1.91,3.33c.35.58.72,1.16,1.09,1.73.19.29.38.57.58.85.08.12.45.83.43.48a1.32,1.32,0,0,0,2.58.35A2.08,2.08,0,0,0,379.92,130.2Z"/><path class="cls-20" d="M391.18,411.8s-17.85-52.28,16.51-55c37.15-3,26.83,48.61,24.3,55.49S391.18,411.8,391.18,411.8Z"/><path class="cls-4" d="M429.52,443.38h-36.6c-2.11,0-3.87-.94-4-2.15l-4.23-31.12c-.18-1.36,1.68-2.52,4.05-2.52h45.05c2.36,0,4.22,1.16,4,2.52l-4.23,31.12C433.4,442.44,431.64,443.38,429.52,443.38Z"/><path class="cls-21" d="M390.09,397.91a3.15,3.15,0,0,0-1.6-.31c-.41,0-.81,0-1.21-.06l-1.15-.07a2.85,2.85,0,0,0-1.2.11h-.14a.75.75,0,0,0-.36.1q-.23.19-.12.09a.55.55,0,0,0-.2.76c0-.1,0-.05.06.14a.78.78,0,0,0,.26.25l.17.12a1.14,1.14,0,0,0,.4.3,5.1,5.1,0,0,0,.73.3A8.72,8.72,0,0,0,387,400c.49.09,1,.17,1.48.21a2.78,2.78,0,0,0,1.66-.21A1.2,1.2,0,0,0,390.09,397.91Z"/><path class="cls-21" d="M389.84,391.11c0,.16,0,.09,0-.21-.05-.1-.07-.16-.09-.2l.06.14a1.54,1.54,0,0,0-.57-.76l-.23-.15a5.23,5.23,0,0,0-.83-.64c-.29-.18-.56-.39-.84-.57l-.4-.29a3,3,0,0,0-.72-.33,2.05,2.05,0,0,0-.7-.11,2.3,2.3,0,0,0-.42.05l-.07,0a.53.53,0,0,0-.44.07.63.63,0,0,0-.19.5.34.34,0,0,0,0-.08l0,.09h0v0a1,1,0,0,0-.12.53,2.2,2.2,0,0,0,.23,1,3.31,3.31,0,0,0,1.17,1.24,5.49,5.49,0,0,0,1.23.63,2.78,2.78,0,0,0,1.27.23c.15,0,.3,0,.46,0a1.23,1.23,0,0,0,.69-.22,1.5,1.5,0,0,0,.25-.19q.29-.32.12-.18A.62.62,0,0,0,389.84,391.11Z"/><path class="cls-21" d="M384.38,388.64a.18.18,0,0,0,0,.05v0Z"/><path class="cls-21" d="M389.73,390.7Z"/><path class="cls-21" d="M390.48,374.89a12.93,12.93,0,0,0-1.35-1.32,8.76,8.76,0,0,0-1.66-1.26,4.89,4.89,0,0,0-1-.41,1.62,1.62,0,0,0-.95,0c-.22,0-.45.18-.36.41h0a1,1,0,0,0,0,.42c0,.12,0,.24.07.36a4.16,4.16,0,0,0,.46,1,3.87,3.87,0,0,0,.43.57c-.06-.07-.12-.16,0,0a2.63,2.63,0,0,0,.3.38,8.79,8.79,0,0,0,.7.66,14.65,14.65,0,0,0,1.6,1.35,5.19,5.19,0,0,0,1,.57,2.55,2.55,0,0,0,1,.19.86.86,0,0,0,.83-.83A3.37,3.37,0,0,0,390.48,374.89Z"/><path class="cls-21" d="M396.15,363.52c0-.07-.07-.39,0-.1a1.93,1.93,0,0,0-.1-.43,5.69,5.69,0,0,0-.32-.77.8.8,0,0,1-.08-.16c.13.27.11.21-.06-.17l-.13-.24c-.09-.18-.18-.37-.26-.55a1,1,0,0,0,0-.1l-.1-.3c-.06-.2-.13-.41-.18-.61a8.94,8.94,0,0,0-.34-1.21,1.75,1.75,0,0,0-.21-.46,1.47,1.47,0,0,0-.6-.75.26.26,0,0,0-.05-.09.32.32,0,0,0-.44-.12,1.49,1.49,0,0,0-.14.12,1.37,1.37,0,0,0-.89.88,1.2,1.2,0,0,0-.2.37c-.05.18,0,0,.07-.09a1.87,1.87,0,0,0-.2.76,5,5,0,0,0,.08,1,6.3,6.3,0,0,0,.58,1.73,4.25,4.25,0,0,0,.35.63l.3.4c.07.09.14.2.22.29l.28.21-.13-.1c0,.08.2.17.27.23a2.51,2.51,0,0,0,.32.25c.09.06.22.09.31.14l.23.1a1.82,1.82,0,0,0,.25.07H395l.2,0A.81.81,0,0,0,396.15,363.52Z"/><path class="cls-21" d="M394.47,364.33l-.05,0-.07,0Z"/><path class="cls-21" d="M411.29,356.17a.6.6,0,0,0,0-.08c0-.09,0-.18,0-.27s0-.2,0-.3a1.68,1.68,0,0,0,0-.54c0,.25,0,.2,0-.15v0a2.29,2.29,0,0,1,0-.41,1,1,0,0,0-.12-.28.51.51,0,0,1,0-.09,2.09,2.09,0,0,1,0-.24.26.26,0,0,0-.33-.25,2.45,2.45,0,0,0-.48.2c-.64.1-1.2.89-1.41,1.41a4.72,4.72,0,0,0-.27,1.75,4.82,4.82,0,0,0,.37,1.67,2,2,0,0,0,.17.4c0,.06.25.37.11.13a2.15,2.15,0,0,0,.32.41,1.1,1.1,0,0,0,1.06.44.3.3,0,0,0,.39-.22,1.22,1.22,0,0,0,.25-.92c0-.09.05-.42,0-.11a1.7,1.7,0,0,0,0-.71h0a.37.37,0,0,1,0-.11c0-.12,0-.23,0-.35s0-.45,0-.67S411.28,356.4,411.29,356.17Z"/><path class="cls-21" d="M428.28,359.4a1.09,1.09,0,0,0-1.58-1.21c.35-.2-.2.09-.29.15a2.38,2.38,0,0,0-.45.38l-.41.48-1,1.29.06-.07-.12.15-.22.28c-.19.24-.39.46-.57.71a3.5,3.5,0,0,0-.68,1.24,1.66,1.66,0,0,0-.15.39.76.76,0,0,0,.93.93,1.82,1.82,0,0,0,.44-.17,3.55,3.55,0,0,0,1.35-.88c.34-.3.64-.64.95-1s.6-.68.88-1a8.54,8.54,0,0,0,.56-.78,2.2,2.2,0,0,0,.25-.54C428.26,359.63,428.38,359,428.28,359.4Z"/><path class="cls-21" d="M403.68,375.1a1,1,0,0,0-.29-.54l-.32-.28c.13.18.13.18,0,0a.55.55,0,0,0-.16-.18l-.14-.1a9.63,9.63,0,0,0-1-.68,14.94,14.94,0,0,0-1.95-.89l.37.15-.48-.19-.38-.17h0l.27.11a3.76,3.76,0,0,0-.46-.2,1.09,1.09,0,0,0-.6-.07,1.2,1.2,0,0,0-.74.41v0a.21.21,0,0,0,0,.06c0,.05-.1.08-.13.13s0,0,0,0a1.72,1.72,0,0,0,.49,2.2,5.87,5.87,0,0,0,1.65.85,13.26,13.26,0,0,0,1.25.45,5.83,5.83,0,0,0,.7.15,1.18,1.18,0,0,0,.56,0q-.12,0,0,0a2,2,0,0,0,.33,0,.85.85,0,0,0,.55-.15A1,1,0,0,0,403.68,375.1Z"/><path class="cls-21" d="M417.16,370.74a1.14,1.14,0,0,0-1-.48,2.57,2.57,0,0,0-1.74,1,10.71,10.71,0,0,0-1,1.25,7,7,0,0,0-.68,1.37,3.24,3.24,0,0,0-.18.76,1.76,1.76,0,0,0,.2,1,.9.9,0,0,0,1,.39,1.55,1.55,0,0,0,.53-.3s.15-.12,0,0l.19-.14a4.71,4.71,0,0,0,.33-.42l0,0c.05-.08.11-.14.16-.22.23-.34.45-.69.69-1l.15-.2.05-.06c.12-.15.26-.31.39-.45a3.3,3.3,0,0,0,1-1.42A1.19,1.19,0,0,0,417.16,370.74Z"/><path class="cls-21" d="M408.73,390Z"/><path class="cls-21" d="M411.53,390.27c0,.27,0,.22,0-.14a2.43,2.43,0,0,0-.08-.47,8.17,8.17,0,0,0-.55-1.45,6.15,6.15,0,0,0-.64-1.08,4,4,0,0,0-.58-.71l-.12-.11a1.47,1.47,0,0,0-.42-.28l-.2-.12a1.23,1.23,0,0,0-1.79,1.37,2,2,0,0,1,.07.26,3.64,3.64,0,0,0,.61,1.25c.25.38.54.75.82,1.1l.15.19a.51.51,0,0,1-.09-.12l.11.15a7,7,0,0,0,.5.61l.19.2a.75.75,0,0,0,.26.21c.33.14.37.16.13.07a1,1,0,0,0,.17.12.81.81,0,0,0,.29.12l.1.05a.64.64,0,0,0,.92-.37c0-.07.1-.31,0-.09a1.27,1.27,0,0,0,.14-.61Z"/><path class="cls-21" d="M402.31,395.47a1.85,1.85,0,0,0-.17-.29l.06.15A1.84,1.84,0,0,0,402,395a7.23,7.23,0,0,0-.55-.69,9.13,9.13,0,0,0-.79-.85q-.42-.41-.87-.78a5.42,5.42,0,0,0-1.58-1l.37.15a2.89,2.89,0,0,0-1.2-.4h0l-.06,0a1.06,1.06,0,0,0-1.29.74,2.6,2.6,0,0,0-.05.62,2,2,0,0,0,.26.88c.07.11.15.21.22.31a3.38,3.38,0,0,0,.45.55l.3.27c.29.25.58.49.88.72s.83.63,1.28.9c.22.14.47.25.7.38a5.8,5.8,0,0,0,1,.37,1.06,1.06,0,0,0,1.07-.28,1.83,1.83,0,0,0,.13-.16l0-.06A1.06,1.06,0,0,0,402.31,395.47Z"/><path class="cls-21" d="M421.86,397.89a1.09,1.09,0,0,0-.36-.06c.19,0,.19,0,0,0a1.78,1.78,0,0,0-.65.06l-.53.14-1.14.29a7.65,7.65,0,0,0-1.25.42l-.45.19-.21.11a1,1,0,0,0-.31.3c-.15.06-.22.31,0,.38s.11.15.17.23a.57.57,0,0,0,.18.12l.21.1a3.84,3.84,0,0,0,.67.25,4.87,4.87,0,0,0,1.37.13,8.74,8.74,0,0,0,1.44-.19,5.43,5.43,0,0,0,.61-.17,1.82,1.82,0,0,0,.94-.74A1.06,1.06,0,0,0,421.86,397.89Z"/><path class="cls-21" d="M423.75,384a3.55,3.55,0,0,0-1.59.6c-.15.09-.32.16-.48.24l-.07,0-.3.1c-.37.12-.75.25-1.12.4l-.58.2c-.33.11-.43.29-.59.58,0,.08-.09.12-.06.21a1.3,1.3,0,0,0,.28.62,1.22,1.22,0,0,0,.52.26,2.94,2.94,0,0,0,.58.16,4.43,4.43,0,0,0,1.74-.07c1.06-.27,2.38-.79,2.74-1.92A1.12,1.12,0,0,0,423.75,384Z"/><path class="cls-21" d="M432,365.66a1,1,0,0,0-1.16-.66.91.91,0,0,0-.31.12c.12-.05.13-.06,0,0a2.08,2.08,0,0,0-.7.42,5.16,5.16,0,0,0-.66.82c-.3.45-.61.9-.88,1.38a11.14,11.14,0,0,0-.83,1.61c-.19.5-.49,1.2-.08,1.66h0a.12.12,0,0,0,.18.14h0c.58.29,1.25-.29,1.69-.64a9.33,9.33,0,0,0,1.14-1.21,18.41,18.41,0,0,0,1.09-1.53A2.73,2.73,0,0,0,432,365.66Z"/><path class="cls-21" d="M437.07,380.82a1.35,1.35,0,0,0-1.19-.8h0a3.24,3.24,0,0,0-1.59.32c-.5.19-1,.43-1.49.64a10.62,10.62,0,0,0-1.16.6,2,2,0,0,0-.85.69c.1-.21,0-.07-.07,0a1.11,1.11,0,0,0-.35.62.86.86,0,0,0,.22.82,1.24,1.24,0,0,0,.77.34h.28l.19,0c.14,0,.28,0,.42-.06l.29,0a10.4,10.4,0,0,0,1.34-.31c.53-.18,1.06-.35,1.57-.56l.64-.27a1.7,1.7,0,0,0,.66-.52l.06-.06A1.32,1.32,0,0,0,437.07,380.82Z"/><path class="cls-21" d="M437.53,397.94a2.5,2.5,0,0,0-1.37-1.36,8.89,8.89,0,0,0-1.64-.65,9.08,9.08,0,0,0-1.71-.34h-.26c-.08,0-.41,0-.06,0a2.69,2.69,0,0,0-.63,0l-.09,0a.65.65,0,0,0-.2,0,.24.24,0,0,0-.35,0l-.1.09a.72.72,0,0,0-.32.8,1.22,1.22,0,0,0,.22.51,1.83,1.83,0,0,0,1,.94c.31.14.63.25.94.37l.29.11h0l.14.06.63.3.24.1.13.06.36.17a3.27,3.27,0,0,0,1.72.49A1.11,1.11,0,0,0,437.53,397.94Z"/><path class="cls-21" d="M408.57,401.76a.66.66,0,0,0-.5-.34H408l-.13-.06-.37,0h-.05a1.2,1.2,0,0,0-.46,0l-.74.09a4.83,4.83,0,0,0-1.06.26l-.47.19a4.17,4.17,0,0,0-.44.19,1.94,1.94,0,0,0-.5.53,1.11,1.11,0,0,0,.66,1.62,1.68,1.68,0,0,0,.89,0l.44-.13a5.87,5.87,0,0,0,1.07-.44,8.85,8.85,0,0,0,.78-.46,2.41,2.41,0,0,0,.68-.67C408.47,402.3,408.71,402,408.57,401.76Z"/><path class="cls-2" d="M436.69,416.32c-2.69-2.64-6.37-.9-9.1.61a5.4,5.4,0,0,1-5.51.28,42.91,42.91,0,0,0-5.18-2.44A12.48,12.48,0,0,0,406,415.92a6.86,6.86,0,0,1-6.05.8c-2-.56-3.89-1.54-5.93-2a9.22,9.22,0,0,0-5.69.2c-1.32.52-3.58,1.93-2.74,3.64a.82.82,0,0,0,.71.41,2.29,2.29,0,0,0,1.46-.74,5.27,5.27,0,0,1,2.08-1.09,8.8,8.8,0,0,1,5,.62c3.36,1.17,6.94,3,10.57,1.75,1.67-.59,3-1.81,4.76-2.26a10.05,10.05,0,0,1,5.22.2c3.26.91,6.11,3.72,9.64,3.53,1.94-.1,3.58-1.1,5.23-2,1.18-.64,3.14-1.55,4.36-.49a1.5,1.5,0,0,0,1.47.39,1.65,1.65,0,0,0,.9-.69A1.53,1.53,0,0,0,436.69,416.32Z"/><path class="cls-2" d="M433.61,422.86c-1.58.75-2.83,1.7-4.62,2a10.76,10.76,0,0,1-5.23-.72c-3.07-1.1-6.07-2.79-9.44-2.27a25.88,25.88,0,0,0-4.74,1.66,9.92,9.92,0,0,1-5.86.17c-3.28-.8-6.32-2.37-9.72-2.68-2.8-.26-6.73.37-8.12,3.2a.89.89,0,0,0,1.4,1.08,6.89,6.89,0,0,1,4.66-2.26,14.52,14.52,0,0,1,5.58.85c4.51,1.48,8.7,3.29,13.39,1.43,2.14-.85,4-1.66,6.37-1.14a53.06,53.06,0,0,1,6.08,2.18,12.44,12.44,0,0,0,6.07.69c1.83-.29,4.21-1.06,5.4-2.58A1,1,0,0,0,433.61,422.86Z"/><path class="cls-6" d="M447.82,467c-51.36,0-102.73-.36-154.09.19s-102.72.37-154.08.4l-86.57,0a3,3,0,0,0-2.31,1l-.56.05a2.25,2.25,0,0,0,0,4.49l.56,0a3,3,0,0,0,2.31,1q77,0,154.08.06c51.36,0,102.72.5,154.08.53l86.58,0C452.82,474.8,452.83,467,447.82,467Z"/><path class="cls-20" d="M78.92,343.82c-.24-.47-.17-.83-.63-1.19a2.74,2.74,0,0,0-1.23-.48,7.32,7.32,0,0,0-2.64,0,7.7,7.7,0,0,0-4.36,2.48,7.45,7.45,0,0,0-1.27,2.16,11,11,0,0,1-1,2.75c-.75,1-2.15,1.23-3.3,1.39-2.75.38-6.07.17-8.1,2.43-1.32,1.46-1.33,3.33-1.85,5.12s-2.17,2.15-3.88,2.33c-2,.22-4,.43-5.63,1.68s-3,3.09-2.87,5.09c.05.88,1.35,1.4,1.79.49.75-1.56,1.33-3,2.9-3.92,1.42-.82,3.12-.75,4.7-.94a6.86,6.86,0,0,0,4.31-1.7c1.33-1.37,1.38-3.2,1.86-5,.76-2.74,4-2.58,6.28-2.83,2.92-.32,5.66-1.12,6.8-4.12a12.66,12.66,0,0,1,1-2.77,4.7,4.7,0,0,1,1.85-1.57,5.12,5.12,0,0,1,2.22-.51c.46,0,.89.13,1.35.16s.86-.28,1.39-.39A.51.51,0,0,0,78.92,343.82Z"/><path class="cls-20" d="M71,360.37c-.25-.48-.17-.83-.63-1.19a2.78,2.78,0,0,0-1.24-.48,7.27,7.27,0,0,0-2.63,0,7.63,7.63,0,0,0-4.36,2.47,7.27,7.27,0,0,0-1.27,2.16,10.5,10.5,0,0,1-1,2.75c-.75,1-2.15,1.24-3.3,1.4-2.74.37-6.07.17-8.1,2.42-1.32,1.47-1.33,3.33-1.84,5.13s-2.17,2.15-3.88,2.33c-2,.21-4,.43-5.63,1.68s-3,3.09-2.87,5.09c.05.87,1.35,1.4,1.79.48.74-1.56,1.32-3,2.9-3.92,1.41-.82,3.12-.74,4.69-.93a6.86,6.86,0,0,0,4.31-1.7c1.34-1.38,1.39-3.21,1.87-4.95.75-2.75,4-2.59,6.28-2.84,2.92-.31,5.66-1.12,6.79-4.11a12.69,12.69,0,0,1,1.06-2.77,4.74,4.74,0,0,1,1.84-1.57,4.91,4.91,0,0,1,2.22-.51c.46,0,.9.12,1.35.15.61.05.86-.28,1.4-.38A.51.51,0,0,0,71,360.37Z"/><path class="cls-20" d="M443.75,106.94c-.25-.47-.17-.83-.64-1.19a2.69,2.69,0,0,0-1.23-.48,7.32,7.32,0,0,0-2.64,0,7.67,7.67,0,0,0-4.35,2.48,7,7,0,0,0-1.27,2.16,10.64,10.64,0,0,1-1.05,2.75c-.75,1-2.15,1.23-3.3,1.39-2.75.38-6.07.17-8.1,2.43-1.32,1.46-1.33,3.33-1.84,5.12s-2.17,2.15-3.88,2.34c-2,.21-4,.42-5.64,1.67-1.52,1.14-3,3.09-2.86,5.09,0,.88,1.35,1.4,1.79.49.74-1.56,1.32-3,2.9-3.92,1.41-.82,3.12-.75,4.69-.94a6.86,6.86,0,0,0,4.31-1.7c1.34-1.37,1.39-3.2,1.87-4.94.75-2.75,4-2.59,6.27-2.84,2.92-.32,5.67-1.12,6.8-4.12a12.69,12.69,0,0,1,1.06-2.77,4.67,4.67,0,0,1,1.84-1.57,5.16,5.16,0,0,1,2.22-.51c.46,0,.9.13,1.35.16.61,0,.86-.28,1.4-.39A.51.51,0,0,0,443.75,106.94Z"/><path class="cls-20" d="M435.78,123.49c-.24-.48-.17-.83-.63-1.19a2.74,2.74,0,0,0-1.23-.48,7.32,7.32,0,0,0-2.64,0,7.33,7.33,0,0,0-5.63,4.63,10.84,10.84,0,0,1-1,2.75c-.75,1-2.15,1.24-3.3,1.4-2.75.37-6.07.17-8.1,2.42-1.32,1.47-1.33,3.33-1.85,5.13s-2.17,2.15-3.88,2.33c-2,.21-4,.43-5.63,1.68s-3,3.09-2.87,5.09c0,.87,1.35,1.4,1.79.48.75-1.56,1.33-3,2.9-3.92,1.42-.82,3.12-.74,4.7-.93a6.86,6.86,0,0,0,4.31-1.7c1.33-1.38,1.38-3.21,1.86-5,.76-2.75,4-2.59,6.28-2.84,2.92-.31,5.66-1.12,6.8-4.11a12.66,12.66,0,0,1,1.05-2.77,4.7,4.7,0,0,1,1.85-1.57,4.86,4.86,0,0,1,2.22-.51c.46,0,.89.12,1.35.15.61,0,.86-.27,1.39-.38A.51.51,0,0,0,435.78,123.49Z"/><path class="cls-20" d="M117.42,118.52l-12,12s0,0,0,0l-3,3.05a.91.91,0,0,0,1.29,1.29l3-3,0,0,12-12A.9.9,0,0,0,117.42,118.52Z"/><path class="cls-20" d="M121.23,122.32l-12,12,0,0-3,3a.91.91,0,0,0,1.28,1.29l3-3,0,0,12-12A.9.9,0,0,0,121.23,122.32Z"/><path class="cls-20" d="M125,126.13l-12,12s0,0,0,0l-3,3a.91.91,0,0,0,1.29,1.29l3-3s0,0,0,0l12-12A.9.9,0,0,0,125,126.13Z"/><path class="cls-20" d="M457.24,324.43l-12,12,0,0c-1,1-2,2-3,3a.91.91,0,0,0,1.29,1.29l3.05-3s0,0,0,0l12-12A.9.9,0,0,0,457.24,324.43Z"/><path class="cls-20" d="M461.05,328.23l-12,12,0,0-3,3.05a.91.91,0,0,0,1.29,1.28l3-3,0,0,12-12A.9.9,0,0,0,461.05,328.23Z"/><path class="cls-20" d="M464.85,332l-12,12,0,0-3,3a.91.91,0,0,0,1.29,1.29l3.05-3,0,0,12-12A.9.9,0,0,0,464.85,332Z"/><path class="cls-4" d="M143.31,49a3.5,3.5,0,0,0-.9-1.53,7,7,0,0,0-1-.79,3.79,3.79,0,0,0-.34-.2c-.32-.15-.64-.29-1-.41a3.31,3.31,0,0,0-1.92,0,3.5,3.5,0,0,0-2.21,1.8,2.6,2.6,0,0,0-.59,1.17,3.27,3.27,0,0,0,0,1.46,2.3,2.3,0,0,0,.41.79,2.59,2.59,0,0,0,.26.46,2.73,2.73,0,0,0,.33.43c.13.11.27.21.41.31l.22.14c.07,0,.13.11.2.15a1.64,1.64,0,0,0,.22.14,2.63,2.63,0,0,0,.72.28,2.24,2.24,0,0,0,.68,0l.18.08a3.42,3.42,0,0,0,1.85,0,2.74,2.74,0,0,0,1.18-.62,2.65,2.65,0,0,0,.9-1,2.62,2.62,0,0,0,.41-1.29A2.74,2.74,0,0,0,143.31,49Z"/><path class="cls-17" d="M190.79,161.3a3.41,3.41,0,0,0-.89-1.52l-.7-.54a3.45,3.45,0,0,0-1.74-.48,2.74,2.74,0,0,0-1.33.3,2.64,2.64,0,0,0-1.12.72,2.53,2.53,0,0,0-.71,1.11,2.55,2.55,0,0,0-.3,1.33l.12.92a3.48,3.48,0,0,0,.89,1.53l.7.54a3.45,3.45,0,0,0,1.75.47,2.65,2.65,0,0,0,1.33-.29,3.17,3.17,0,0,0,1.83-1.83,2.59,2.59,0,0,0,.3-1.34Z"/><path class="cls-17" d="M51.35,218.06A3.54,3.54,0,0,0,49.26,216a2.93,2.93,0,0,0-1.52-.34l-1,.14a4,4,0,0,0-1.75,1l-.61.8a4,4,0,0,0-.52,1.61,3,3,0,0,0,0,1.26,2.92,2.92,0,0,0,.46,1.46l.62.8a3,3,0,0,0,1.26.81,1.94,1.94,0,0,0,1,.27,3.1,3.1,0,0,0,1.57-.07l.94-.4a3.86,3.86,0,0,0,1.4-1.41l0,0v0l.4-1,0-.1s0-.06,0-.09c0-.18.06-.44.07-.54s.06-.37.08-.55v0A3,3,0,0,0,51.35,218.06Z"/><path class="cls-4" d="M137.7,372.83l-.08-.62a1.72,1.72,0,0,0-.42-.8,1.24,1.24,0,0,0-.28-.28l.1,0h0l-.48-.37-.07,0-.18-.09a1.25,1.25,0,0,0-.25-.09l-.05,0-.11,0-.1-.05-.26,0-.09,0a1,1,0,0,0-.39,0,1.78,1.78,0,0,0-.47.09,1.66,1.66,0,0,0-.49.16,2.18,2.18,0,0,0-1.24,1.24,1.76,1.76,0,0,0-.2.91l.08.62a2.3,2.3,0,0,0,.61,1c.15.13.31.25.47.37a2.35,2.35,0,0,0,1.18.32,3.29,3.29,0,0,0,.81-.09.67.67,0,0,0,.19-.05l.56-.24a1.79,1.79,0,0,0,.67-.61,1.13,1.13,0,0,0,.3-.52,1.67,1.67,0,0,0,.2-.91Z"/><path class="cls-17" d="M364.82,375.56a3.39,3.39,0,0,0-1.18-1.17,3.2,3.2,0,0,0-1.65-.45c-.38,0-.77.08-1.16.16a1.76,1.76,0,0,0-.3.1h0a1.39,1.39,0,0,1-.33.1l-.78.33a2.57,2.57,0,0,0-.92.84,1.75,1.75,0,0,0-.42.72,2.48,2.48,0,0,0-.28,1.26l.12.87.33.78a2.4,2.4,0,0,0,.84.92,2.38,2.38,0,0,0,1.11.58l.12,0c.33.05.66.1,1,.13h.27l.89-.12h0c.08,0,.59-.23.85-.37l.11-.06,0,0,.68-.52,0-.05,0,0,.51-.67.05-.05a3.31,3.31,0,0,0,0-3.3Z"/><path class="cls-4" d="M467.77,256a3.52,3.52,0,0,0-.92-1.58l-.72-.56a3.68,3.68,0,0,0-1.8-.49,2.8,2.8,0,0,0-1.38.31,2.72,2.72,0,0,0-1.15.74,2.63,2.63,0,0,0-.74,1.15,2.74,2.74,0,0,0-.31,1.38c0,.31.09.63.13.95a3.67,3.67,0,0,0,.92,1.58l.72.55a3.49,3.49,0,0,0,1.81.49,2.58,2.58,0,0,0,1.37-.31,3.16,3.16,0,0,0,1.89-1.89,2.58,2.58,0,0,0,.31-1.37Z"/><path class="cls-17" d="M387.65,163.07a2.21,2.21,0,0,0-.34-1.08,3,3,0,0,0-.65-.73,3.22,3.22,0,0,0-.64-.86,1.62,1.62,0,0,0-.92-.44,1.44,1.44,0,0,0-1,.19l-.21.16h0a.68.68,0,0,0-.48-.4,2.6,2.6,0,0,0-.88,0,2.43,2.43,0,0,0-.64.22,2.2,2.2,0,0,0-.72.58,2.53,2.53,0,0,0-1.07,1.41,3,3,0,0,0,0,1.64,3.53,3.53,0,0,0,.31.78,4,4,0,0,0,.51.71,2.11,2.11,0,0,0,.35.32,2.83,2.83,0,0,0,.87.75l.09.05a2.94,2.94,0,0,0,1.42.39,5.44,5.44,0,0,0,1.2-.13,5.32,5.32,0,0,0,1.11-.43,4.46,4.46,0,0,0,1-.7,2.92,2.92,0,0,0,.75-1.28A2.14,2.14,0,0,0,387.65,163.07Z"/><path class="cls-4" d="M320.62,228.17a2.27,2.27,0,0,0-.63-1l-.62-.48a2.32,2.32,0,0,0-1.14-.36,1.63,1.63,0,0,0-.82,0,2.39,2.39,0,0,0-1.14.36l-.62.48a3,3,0,0,0-.5.69l-.1.17a3.08,3.08,0,0,0-.42,1.57c0,.28.07.56.11.83a3.1,3.1,0,0,0,.8,1.38,2.38,2.38,0,0,0,1,.65,2.8,2.8,0,0,0,2.4,0,2.32,2.32,0,0,0,1-.65,3,3,0,0,0,.8-1.38,4.85,4.85,0,0,0,.13-1.09A2.3,2.3,0,0,0,320.62,228.17Z"/><path class="cls-4" d="M307.12,35.83v0l-.27-.64a1.94,1.94,0,0,0-.7-.75,1.23,1.23,0,0,0-.59-.35,2,2,0,0,0-1-.23h0a2.71,2.71,0,0,0-1.39.37,2.76,2.76,0,0,0-1,1c0,.08-.09.16-.14.24l-.13.17a1.83,1.83,0,0,0-.31,1,1.19,1.19,0,0,0,0,.7,1.8,1.8,0,0,0,.31,1c.13.18.27.36.41.53l.52.41a2,2,0,0,0,1,.31,2,2,0,0,0,1,0l.13,0a6.81,6.81,0,0,0,.74-.31,4.9,4.9,0,0,0,.77-.56,2.76,2.76,0,0,0,.71-2.68Z"/></g></svg>